<svg width="56px" height="56px" viewBox="0 0 56 56" version="1.1" xmlns:xlink="http://www.w3.org/1999/xlink" xmlns="http://www.w3.org/2000/svg">
  <defs>
    <path d="M37 4L37 4L37 60L-19 60L-19 4L37 4Z" id="path_1" />
    <clipPath id="clip_1">
      <use xlink:href="#path_1" clip-rule="evenodd" fill-rule="evenodd" />
    </clipPath>
  </defs>
  <g id="eevee_front">
    <path d="M37 4L37 4L37 60L-19 60L-19 4L37 4Z" id="eevee_front" fill="none" stroke="none" />
    <path d="M10 9C10 9 11 9 11 9C11 9 11 10 11 10C11 10 10 10 10 10C10 10 10 9 10 9ZM9 10C9 10 10 10 10 10C10 10 10 11 10 11C10 11 9 11 9 11C9 11 9 10 9 10ZM11 10C11 10 12 10 12 10C12 10 12 11 12 11C12 11 11 11 11 11C11 11 11 10 11 10ZM12 11C12 11 13 11 13 11C13 11 13 12 13 12C13 12 12 12 12 12C12 12 12 11 12 11ZM10 12C10 12 11 12 11 12C11 12 11 13 11 13C11 13 10 13 10 13C10 13 10 12 10 12ZM14 12C14 12 15 12 15 12C15 12 15 13 15 13C15 13 14 13 14 13C14 13 14 12 14 12ZM16 13C16 13 17 13 17 13C17 13 17 14 17 14C17 14 16 14 16 14C16 14 16 13 16 13ZM11 14C11 14 12 14 12 14C12 14 12 15 12 15C12 15 11 15 11 15C11 15 11 14 11 14ZM14 15C14 15 15 15 15 15C15 15 15 16 15 16C15 16 14 16 14 16C14 16 14 15 14 15ZM17 15C17 15 18 15 18 15C18 15 18 16 18 16C18 16 17 16 17 16C17 16 17 15 17 15ZM12 16C12 16 13 16 13 16C13 16 13 17 13 17C13 17 12 17 12 17C12 17 12 16 12 16ZM14 16C14 16 15 16 15 16C15 16 15 17 15 17C15 17 14 17 14 17C14 17 14 16 14 16ZM15 16C15 16 16 16 16 16C16 16 16 17 16 17C16 17 15 17 15 17C15 17 15 16 15 16ZM36 16C36 16 37 16 37 16C37 16 37 17 37 17C37 17 36 17 36 17C36 17 36 16 36 16ZM15 17C15 17 16 17 16 17C16 17 16 18 16 18C16 18 15 18 15 18C15 18 15 17 15 17ZM18 17C18 17 19 17 19 17C19 17 19 18 19 18C19 18 18 18 18 18C18 18 18 17 18 17ZM21 17C21 17 22 17 22 17C22 17 22 18 22 18C22 18 21 18 21 18C21 18 21 17 21 17ZM22 17C22 17 23 17 23 17C23 17 23 18 23 18C23 18 22 18 22 18C22 18 22 17 22 17ZM24 17C24 17 25 17 25 17C25 17 25 18 25 18C25 18 24 18 24 18C24 18 24 17 24 17ZM25 17C25 17 26 17 26 17C26 17 26 18 26 18C26 18 25 18 25 18C25 18 25 17 25 17ZM13 18C13 18 14 18 14 18C14 18 14 19 14 19C14 19 13 19 13 19C13 19 13 18 13 18ZM16 18C16 18 17 18 17 18C17 18 17 19 17 19C17 19 16 19 16 19C16 19 16 18 16 18ZM19 18C19 18 20 18 20 18C20 18 20 19 20 19C20 19 19 19 19 19C19 19 19 18 19 18ZM27 18C27 18 28 18 28 18C28 18 28 19 28 19C28 19 27 19 27 19C27 19 27 18 27 18ZM14 20C14 20 15 20 15 20C15 20 15 21 15 21C15 21 14 21 14 21C14 21 14 20 14 20ZM16 21C16 21 17 21 17 21C17 21 17 22 17 22C17 22 16 22 16 22C16 22 16 21 16 21ZM18 22C18 22 19 22 19 22C19 22 19 23 19 23C19 23 18 23 18 23C18 23 18 22 18 22ZM26 22C26 22 27 22 27 22C27 22 27 23 27 23C27 23 26 23 26 23C26 23 26 22 26 22ZM16 23C16 23 17 23 17 23C17 23 17 24 17 24C17 24 16 24 16 24C16 24 16 23 16 23ZM16 24C16 24 17 24 17 24C17 24 17 25 17 25C17 25 16 25 16 25C16 25 16 24 16 24ZM19 24C19 24 20 24 20 24C20 24 20 25 20 25C20 25 19 25 19 25C19 25 19 24 19 24ZM25 24C25 24 26 24 26 24C26 24 26 25 26 25C26 25 25 25 25 25C25 25 25 24 25 24ZM27 24C27 24 28 24 28 24C28 24 28 25 28 25C28 25 27 25 27 25C27 25 27 24 27 24ZM28 24C28 24 29 24 29 24C29 24 29 25 29 25C29 25 28 25 28 25C28 25 28 24 28 24ZM18 25C18 25 19 25 19 25C19 25 19 26 19 26C19 26 18 26 18 26C18 26 18 25 18 25ZM19 25C19 25 20 25 20 25C20 25 20 26 20 26C20 26 19 26 19 26C19 26 19 25 19 25ZM25 25C25 25 26 25 26 25C26 25 26 26 26 26C26 26 25 26 25 26C25 26 25 25 25 25ZM26 25C26 25 27 25 27 25C27 25 27 26 27 26C27 26 26 26 26 26C26 26 26 25 26 25ZM27 25C27 25 28 25 28 25C28 25 28 26 28 26C28 26 27 26 27 26C27 26 27 25 27 25ZM28 25C28 25 29 25 29 25C29 25 29 26 29 26C29 26 28 26 28 26C28 26 28 25 28 25ZM18 26C18 26 19 26 19 26C19 26 19 27 19 27C19 27 18 27 18 27C18 27 18 26 18 26ZM26 26C26 26 27 26 27 26C27 26 27 27 27 27C27 27 26 27 26 27C26 27 26 26 26 26ZM27 26C27 26 28 26 28 26C28 26 28 27 28 27C28 27 27 27 27 27C27 27 27 26 27 26ZM21 27C21 27 22 27 22 27C22 27 22 28 22 28C22 28 21 28 21 28C21 28 21 27 21 27ZM21 29C21 29 22 29 22 29C22 29 22 30 22 30C22 30 21 30 21 30C21 30 21 29 21 29ZM22 29C22 29 23 29 23 29C23 29 23 30 23 30C23 30 22 30 22 30C22 30 22 29 22 29ZM16 30C16 30 17 30 17 30C17 30 17 31 17 31C17 31 16 31 16 31C16 31 16 30 16 30ZM18 31C18 31 19 31 19 31C19 31 19 32 19 32C19 32 18 32 18 32C18 32 18 31 18 31ZM21 32C21 32 22 32 22 32C22 32 22 33 22 33C22 33 21 33 21 33C21 33 21 32 21 32ZM22 32C22 32 23 32 23 32C23 32 23 33 23 33C23 33 22 33 22 33C22 33 22 32 22 32ZM23 32C23 32 24 32 24 32C24 32 24 33 24 33C24 33 23 33 23 33C23 33 23 32 23 32ZM24 32C24 32 25 32 25 32C25 32 25 33 25 33C25 33 24 33 24 33C24 33 24 32 24 32ZM25 32C25 32 26 32 26 32C26 32 26 33 26 33C26 33 25 33 25 33C25 33 25 32 25 32ZM26 32C26 32 27 32 27 32C27 32 27 33 27 33C27 33 26 33 26 33C26 33 26 32 26 32ZM13 33C13 33 14 33 14 33C14 33 14 34 14 34C14 34 13 34 13 34C13 34 13 33 13 33ZM18 33C18 33 19 33 19 33C19 33 19 34 19 34C19 34 18 34 18 34C18 34 18 33 18 33ZM13 34C13 34 14 34 14 34C14 34 14 35 14 35C14 35 13 35 13 35C13 35 13 34 13 34ZM17 35C17 35 18 35 18 35C18 35 18 36 18 36C18 36 17 36 17 36C17 36 17 35 17 35ZM35 35C35 35 36 35 36 35C36 35 36 36 36 36C36 36 35 36 35 36C35 36 35 35 35 35ZM35 36C35 36 36 36 36 36C36 36 36 37 36 37C36 37 35 37 35 37C35 37 35 36 35 36ZM36 37C36 37 37 37 37 37C37 37 37 38 37 38C37 38 36 38 36 38C36 38 36 37 36 37ZM36 38C36 38 37 38 37 38C37 38 37 39 37 39C37 39 36 39 36 39C36 39 36 38 36 38ZM36 39C36 39 37 39 37 39C37 39 37 40 37 40C37 40 36 40 36 40C36 40 36 39 36 39ZM36 40C36 40 37 40 37 40C37 40 37 41 37 41C37 41 36 41 36 41C36 41 36 40 36 40ZM43 10C43 10 44 10 44 10C44 10 44 11 44 11C44 11 43 11 43 11C43 11 43 10 43 10ZM44 10C44 10 45 10 45 10C45 10 45 11 45 11C45 11 44 11 44 11C44 11 44 10 44 10ZM45 10C45 10 46 10 46 10C46 10 46 11 46 11C46 11 45 11 45 11C45 11 45 10 45 10ZM41 11C41 11 42 11 42 11C42 11 42 12 42 12C42 12 41 12 41 12C41 12 41 11 41 11ZM45 11C45 11 46 11 46 11C46 11 46 12 46 12C46 12 45 12 45 12C45 12 45 11 45 11ZM38 12C38 12 39 12 39 12C39 12 39 13 39 13C39 13 38 13 38 13C38 13 38 12 38 12ZM45 12C45 12 46 12 46 12C46 12 46 13 46 13C46 13 45 13 45 13C45 13 45 12 45 12ZM35 13C35 13 36 13 36 13C36 13 36 14 36 14C36 14 35 14 35 14C35 14 35 13 35 13ZM41 13C41 13 42 13 42 13C42 13 42 14 42 14C42 14 41 14 41 14C41 14 41 13 41 13ZM42 13C42 13 43 13 43 13C43 13 43 14 43 14C43 14 42 14 42 14C42 14 42 13 42 13ZM44 13C44 13 45 13 45 13C45 13 45 14 45 14C45 14 44 14 44 14C44 14 44 13 44 13ZM33 14C33 14 34 14 34 14C34 14 34 15 34 15C34 15 33 15 33 15C33 15 33 14 33 14ZM38 14C38 14 39 14 39 14C39 14 39 15 39 15C39 15 38 15 38 15C38 15 38 14 38 14ZM39 14C39 14 40 14 40 14C40 14 40 15 40 15C40 15 39 15 39 15C39 15 39 14 39 14ZM40 14C40 14 41 14 41 14C41 14 41 15 41 15C41 15 40 15 40 15C40 15 40 14 40 14ZM41 14C41 14 42 14 42 14C42 14 42 15 42 15C42 15 41 15 41 15C41 15 41 14 41 14ZM44 14C44 14 45 14 45 14C45 14 45 15 45 15C45 15 44 15 44 15C44 15 44 14 44 14ZM36 15C36 15 37 15 37 15C37 15 37 16 37 16C37 16 36 16 36 16C36 16 36 15 36 15ZM37 15C37 15 38 15 38 15C38 15 38 16 38 16C38 16 37 16 37 16C37 16 37 15 37 15ZM38 15C38 15 39 15 39 15C39 15 39 16 39 16C39 16 38 16 38 16C38 16 38 15 38 15ZM39 15C39 15 40 15 40 15C40 15 40 16 40 16C40 16 39 16 39 16C39 16 39 15 39 15ZM40 15C40 15 41 15 41 15C41 15 41 16 41 16C41 16 40 16 40 16C40 16 40 15 40 15ZM43 15C43 15 44 15 44 15C44 15 44 16 44 16C44 16 43 16 43 16C43 16 43 15 43 15ZM31 16C31 16 32 16 32 16C32 16 32 17 32 17C32 17 31 17 31 17C31 17 31 16 31 16ZM34 16C34 16 35 16 35 16C35 16 35 17 35 17C35 17 34 17 34 17C34 17 34 16 34 16ZM35 16C35 16 36 16 36 16C36 16 36 17 36 17C36 17 35 17 35 17C35 17 35 16 35 16ZM37 16C37 16 38 16 38 16C38 16 38 17 38 17C38 17 37 17 37 17C37 17 37 16 37 16ZM38 16C38 16 39 16 39 16C39 16 39 17 39 17C39 17 38 17 38 17C38 17 38 16 38 16ZM39 16C39 16 40 16 40 16C40 16 40 17 40 17C40 17 39 17 39 17C39 17 39 16 39 16ZM42 16C42 16 43 16 43 16C43 16 43 17 43 17C43 17 42 17 42 17C42 17 42 16 42 16ZM33 17C33 17 34 17 34 17C34 17 34 18 34 18C34 18 33 18 33 18C33 18 33 17 33 17ZM34 17C34 17 35 17 35 17C35 17 35 18 35 18C35 18 34 18 34 18C34 18 34 17 34 17ZM35 17C35 17 36 17 36 17C36 17 36 18 36 18C36 18 35 18 35 18C35 18 35 17 35 17ZM36 17C36 17 37 17 37 17C37 17 37 18 37 18C37 18 36 18 36 18C36 18 36 17 36 17ZM37 17C37 17 38 17 38 17C38 17 38 18 38 18C38 18 37 18 37 18C37 18 37 17 37 17ZM38 17C38 17 39 17 39 17C39 17 39 18 39 18C39 18 38 18 38 18C38 18 38 17 38 17ZM41 17C41 17 42 17 42 17C42 17 42 18 42 18C42 18 41 18 41 18C41 18 41 17 41 17ZM32 18C32 18 33 18 33 18C33 18 33 19 33 19C33 19 32 19 32 19C32 19 32 18 32 18ZM33 18C33 18 34 18 34 18C34 18 34 19 34 19C34 19 33 19 33 19C33 19 33 18 33 18ZM34 18C34 18 35 18 35 18C35 18 35 19 35 19C35 19 34 19 34 19C34 19 34 18 34 18ZM35 18C35 18 36 18 36 18C36 18 36 19 36 19C36 19 35 19 35 19C35 19 35 18 35 18ZM36 18C36 18 37 18 37 18C37 18 37 19 37 19C37 19 36 19 36 19C36 19 36 18 36 18ZM37 18C37 18 38 18 38 18C38 18 38 19 38 19C38 19 37 19 37 19C37 19 37 18 37 18ZM40 18C40 18 41 18 41 18C41 18 41 19 41 19C41 19 40 19 40 19C40 19 40 18 40 18ZM31 19C31 19 32 19 32 19C32 19 32 20 32 20C32 20 31 20 31 20C31 20 31 19 31 19ZM32 19C32 19 33 19 33 19C33 19 33 20 33 20C33 20 32 20 32 20C32 20 32 19 32 19ZM33 19C33 19 34 19 34 19C34 19 34 20 34 20C34 20 33 20 33 20C33 20 33 19 33 19ZM34 19C34 19 35 19 35 19C35 19 35 20 35 20C35 20 34 20 34 20C34 20 34 19 34 19ZM35 19C35 19 36 19 36 19C36 19 36 20 36 20C36 20 35 20 35 20C35 20 35 19 35 19ZM39 19C39 19 40 19 40 19C40 19 40 20 40 20C40 20 39 20 39 20C39 20 39 19 39 19ZM32 20C32 20 33 20 33 20C33 20 33 21 33 21C33 21 32 21 32 21C32 21 32 20 32 20ZM37 20C37 20 38 20 38 20C38 20 38 21 38 21C38 21 37 21 37 21C37 21 37 20 37 20ZM38 20C38 20 39 20 39 20C39 20 39 21 39 21C39 21 38 21 38 21C38 21 38 20 38 20ZM42 20C42 20 43 20 43 20C43 20 43 21 43 21C43 21 42 21 42 21C42 21 42 20 42 20ZM35 21C35 21 36 21 36 21C36 21 36 22 36 22C36 22 35 22 35 22C35 22 35 21 35 21ZM36 21C36 21 37 21 37 21C37 21 37 22 37 22C37 22 36 22 36 22C36 22 36 21 36 21ZM42 21C42 21 43 21 43 21C43 21 43 22 43 22C43 22 42 22 42 22C42 22 42 21 42 21ZM32 22C32 22 33 22 33 22C33 22 33 23 33 23C33 23 32 23 32 23C32 23 32 22 32 22ZM33 22C33 22 34 22 34 22C34 22 34 23 34 23C34 23 33 23 33 23C33 23 33 22 33 22ZM34 22C34 22 35 22 35 22C35 22 35 23 35 23C35 23 34 23 34 23C34 23 34 22 34 22ZM42 22C42 22 43 22 43 22C43 22 43 23 43 23C43 23 42 23 42 23C42 23 42 22 42 22ZM44 22C44 22 45 22 45 22C45 22 45 23 45 23C45 23 44 23 44 23C44 23 44 22 44 22ZM32 23C32 23 33 23 33 23C33 23 33 24 33 24C33 24 32 24 32 24C32 24 32 23 32 23ZM45 23C45 23 46 23 46 23C46 23 46 24 46 24C46 24 45 24 45 24C45 24 45 23 45 23ZM32 24C32 24 33 24 33 24C33 24 33 25 33 25C33 25 32 25 32 25C32 25 32 24 32 24ZM41 24C41 24 42 24 42 24C42 24 42 25 42 25C42 25 41 25 41 25C41 25 41 24 41 24ZM32 25C32 25 33 25 33 25C33 25 33 26 33 26C33 26 32 26 32 26C32 26 32 25 32 25ZM46 25C46 25 47 25 47 25C47 25 47 26 47 26C47 26 46 26 46 26C46 26 46 25 46 25ZM32 26C32 26 33 26 33 26C33 26 33 27 33 27C33 27 32 27 32 27C32 27 32 26 32 26ZM40 26C40 26 41 26 41 26C41 26 41 27 41 27C41 27 40 27 40 27C40 27 40 26 40 26ZM38 27C38 27 39 27 39 27C39 27 39 28 39 28C39 28 38 28 38 28C38 28 38 27 38 27ZM37 28C37 28 38 28 38 28C38 28 38 29 38 29C38 29 37 29 37 29C37 29 37 28 37 28ZM47 28C47 28 48 28 48 28C48 28 48 29 48 29C48 29 47 29 47 29C47 29 47 28 47 28ZM31 29C31 29 32 29 32 29C32 29 32 30 32 30C32 30 31 30 31 30C31 30 31 29 31 29ZM36 29C36 29 37 29 37 29C37 29 37 30 37 30C37 30 36 30 36 30C36 30 36 29 36 29ZM47 29C47 29 48 29 48 29C48 29 48 30 48 30C48 30 47 30 47 30C47 30 47 29 47 29ZM32 30C32 30 33 30 33 30C33 30 33 31 33 31C33 31 32 31 32 31C32 31 32 30 32 30ZM35 30C35 30 36 30 36 30C36 30 36 31 36 31C36 31 35 31 35 31C35 31 35 30 35 30ZM47 30C47 30 48 30 48 30C48 30 48 31 48 31C48 31 47 31 47 31C47 31 47 30 47 30ZM29 31C29 31 30 31 30 31C30 31 30 32 30 32C30 32 29 32 29 32C29 32 29 31 29 31ZM33 31C33 31 34 31 34 31C34 31 34 32 34 32C34 32 33 32 33 32C33 32 33 31 33 31ZM47 31C47 31 48 31 48 31C48 31 48 32 48 32C48 32 47 32 47 32C47 32 47 31 47 31ZM34 32C34 32 35 32 35 32C35 32 35 33 35 33C35 33 34 33 34 33C34 33 34 32 34 32ZM47 32C47 32 48 32 48 32C48 32 48 33 48 33C48 33 47 33 47 33C47 33 47 32 47 32ZM34 33C34 33 35 33 35 33C35 33 35 34 35 34C35 34 34 34 34 34C34 34 34 33 34 33ZM34 34C34 34 35 34 35 34C35 34 35 35 35 35C35 35 34 35 34 35C34 35 34 34 34 34ZM46 35C46 35 47 35 47 35C47 35 47 36 47 36C47 36 46 36 46 36C46 36 46 35 46 35ZM33 37C33 37 34 37 34 37C34 37 34 38 34 38C34 38 33 38 33 38C33 38 33 37 33 37ZM45 37C45 37 46 37 46 37C46 37 46 38 46 38C46 38 45 38 45 38C45 38 45 37 45 37ZM32 38C32 38 33 38 33 38C33 38 33 39 33 39C33 39 32 39 32 39C32 39 32 38 32 38ZM43 39C43 39 44 39 44 39C44 39 44 40 44 40C44 40 43 40 43 40C43 40 43 39 43 39ZM32 40C32 40 33 40 33 40C33 40 33 41 33 41C33 41 32 41 32 41C32 41 32 40 32 40ZM41 40C41 40 42 40 42 40C42 40 42 41 42 41C42 41 41 41 41 41C41 41 41 40 41 40ZM32 41C32 41 33 41 33 41C33 41 33 42 33 42C33 42 32 42 32 42C32 42 32 41 32 41ZM37 41C37 41 38 41 38 41C38 41 38 42 38 42C38 42 37 42 37 42C37 42 37 41 37 41ZM38 41C38 41 39 41 39 41C39 41 39 42 39 42C39 42 38 42 38 42C38 42 38 41 38 41ZM33 42C33 42 34 42 34 42C34 42 34 43 34 43C34 43 33 43 33 43C33 43 33 42 33 42ZM37 42C37 42 38 42 38 42C38 42 38 43 38 43C38 43 37 43 37 43C37 43 37 42 37 42ZM33 43C33 43 34 43 34 43C34 43 34 44 34 44C34 44 33 44 33 44C33 44 33 43 33 43ZM37 43C37 43 38 43 38 43C38 43 38 44 38 44C38 44 37 44 37 44C37 44 37 43 37 43ZM33 44C33 44 34 44 34 44C34 44 34 45 34 45C34 45 33 45 33 45C33 45 33 44 33 44ZM36 44C36 44 37 44 37 44C37 44 37 45 37 45C37 45 36 45 36 45C36 45 36 44 36 44ZM34 45C34 45 35 45 35 45C35 45 35 46 35 46C35 46 34 46 34 46C34 46 34 45 34 45ZM35 45C35 45 36 45 36 45C36 45 36 46 36 46C36 46 35 46 35 46C35 46 35 45 35 45ZM14 37C14 37 15 37 15 37C15 37 15 38 15 38C15 38 14 38 14 38C14 38 14 37 14 37ZM16 37C16 37 17 37 17 37C17 37 17 38 17 38C17 38 16 38 16 38C16 38 16 37 16 37ZM16 38C16 38 17 38 17 38C17 38 17 39 17 39C17 39 16 39 16 39C16 39 16 38 16 38ZM15 27C15 27 16 27 16 27C16 27 16 28 16 28C16 28 15 28 15 28C15 28 15 27 15 27ZM28 37C28 37 29 37 29 37C29 37 29 38 29 38C29 38 28 38 28 38C28 38 28 37 28 37ZM28 38C28 38 29 38 29 38C29 38 29 39 29 39C29 39 28 39 28 39C28 39 28 38 28 38ZM13 39C13 39 14 39 14 39C14 39 14 40 14 40C14 40 13 40 13 40C13 40 13 39 13 39ZM18 39C18 39 19 39 19 39C19 39 19 40 19 40C19 40 18 40 18 40C18 40 18 39 18 39ZM27 39C27 39 28 39 28 39C28 39 28 40 28 40C28 40 27 40 27 40C27 40 27 39 27 39ZM29 39C29 39 30 39 30 39C30 39 30 40 30 40C30 40 29 40 29 40C29 40 29 39 29 39ZM30 39C30 39 31 39 31 39C31 39 31 40 31 40C31 40 30 40 30 40C30 40 30 39 30 39ZM13 40C13 40 14 40 14 40C14 40 14 41 14 41C14 41 13 41 13 41C13 41 13 40 13 40ZM19 40C19 40 20 40 20 40C20 40 20 41 20 41C20 41 19 41 19 41C19 41 19 40 19 40ZM25 40C25 40 26 40 26 40C26 40 26 41 26 41C26 41 25 41 25 41C25 41 25 40 25 40ZM18 41C18 41 19 41 19 41C19 41 19 42 19 42C19 42 18 42 18 42C18 42 18 41 18 41ZM19 41C19 41 20 41 20 41C20 41 20 42 20 42C20 42 19 42 19 42C19 42 19 41 19 41ZM21 41C21 41 22 41 22 41C22 41 22 42 22 42C22 42 21 42 21 42C21 42 21 41 21 41ZM22 41C22 41 23 41 23 41C23 41 23 42 23 42C23 42 22 42 22 42C22 42 22 41 22 41ZM23 41C23 41 24 41 24 41C24 41 24 42 24 42C24 42 23 42 23 42C23 42 23 41 23 41ZM25 41C25 41 26 41 26 41C26 41 26 42 26 42C26 42 25 42 25 42C25 42 25 41 25 41ZM30 41C30 41 31 41 31 41C31 41 31 42 31 42C31 42 30 42 30 42C30 42 30 41 30 41ZM31 41C31 41 32 41 32 41C32 41 32 42 32 42C32 42 31 42 31 42C31 42 31 41 31 41ZM14 42C14 42 15 42 15 42C15 42 15 43 15 43C15 43 14 43 14 43C14 43 14 42 14 42ZM17 42C17 42 18 42 18 42C18 42 18 43 18 43C18 43 17 43 17 43C17 43 17 42 17 42ZM18 42C18 42 19 42 19 42C19 42 19 43 19 43C19 43 18 43 18 43C18 43 18 42 18 42ZM23 42C23 42 24 42 24 42C24 42 24 43 24 43C24 43 23 43 23 43C23 43 23 42 23 42ZM29 42C29 42 30 42 30 42C30 42 30 43 30 43C30 43 29 43 29 43C29 43 29 42 29 42ZM30 42C30 42 31 42 31 42C31 42 31 43 31 43C31 43 30 43 30 43C30 43 30 42 30 42ZM16 43C16 43 17 43 17 43C17 43 17 44 17 44C17 44 16 44 16 44C16 44 16 43 16 43ZM23 43C23 43 24 43 24 43C24 43 24 44 24 44C24 44 23 44 23 44C23 44 23 43 23 43ZM29 43C29 43 30 43 30 43C30 43 30 44 30 44C30 44 29 44 29 44C29 44 29 43 29 43ZM30 43C30 43 31 43 31 43C31 43 31 44 31 44C31 44 30 44 30 44C30 44 30 43 30 43ZM23 44C23 44 24 44 24 44C24 44 24 45 24 45C24 45 23 45 23 45C23 45 23 44 23 44ZM28 44C28 44 29 44 29 44C29 44 29 45 29 45C29 45 28 45 28 45C28 45 28 44 28 44ZM29 44C29 44 30 44 30 44C30 44 30 45 30 45C30 45 29 45 29 45C29 45 29 44 29 44ZM22 45C22 45 23 45 23 45C23 45 23 46 23 46C23 46 22 46 22 46C22 46 22 45 22 45ZM28 45C28 45 29 45 29 45C29 45 29 46 29 46C29 46 28 46 28 46C28 46 28 45 28 45ZM24 46C24 46 25 46 25 46C25 46 25 47 25 47C25 47 24 47 24 47C24 47 24 46 24 46ZM25 46C25 46 26 46 26 46C26 46 26 47 26 47C26 47 25 47 25 47C25 47 25 46 25 46ZM26 46C26 46 27 46 27 46C27 46 27 47 27 47C27 47 26 47 26 47C26 47 26 46 26 46Z" id="Combined-Shape-Copy-3" fill="#3E4B23" stroke="none" clip-path="url(#clip_1)" />
    <path d="M9 9C9 9 10 9 10 9C10 9 10 10 10 10C10 10 9 10 9 10C9 10 9 9 9 9ZM9 11C9 11 10 11 10 11C10 11 10 12 10 12C10 12 9 12 9 12C9 12 9 11 9 11ZM11 12C11 12 12 12 12 12C12 12 12 13 12 13C12 13 11 13 11 13C11 13 11 12 11 12ZM15 12C15 12 16 12 16 12C16 12 16 13 16 13C16 13 15 13 15 13C15 13 15 12 15 12ZM37 12C37 12 38 12 38 12C38 12 38 13 38 13C38 13 37 13 37 13C37 13 37 12 37 12ZM10 13C10 13 11 13 11 13C11 13 11 14 11 14C11 14 10 14 10 14C10 14 10 13 10 13ZM36 13C36 13 37 13 37 13C37 13 37 14 37 14C37 14 36 14 36 14C36 14 36 13 36 13ZM14 14C14 14 15 14 15 14C15 14 15 15 15 15C15 15 14 15 14 15C14 15 14 14 14 14ZM17 14C17 14 18 14 18 14C18 14 18 15 18 15C18 15 17 15 17 15C17 15 17 14 17 14ZM34 14C34 14 35 14 35 14C35 14 35 15 35 15C35 15 34 15 34 15C34 15 34 14 34 14ZM37 14C37 14 38 14 38 14C38 14 38 15 38 15C38 15 37 15 37 15C37 15 37 14 37 14ZM11 15C11 15 12 15 12 15C12 15 12 16 12 16C12 16 11 16 11 16C11 16 11 15 11 15ZM15 15C15 15 16 15 16 15C16 15 16 16 16 16C16 16 15 16 15 16C15 16 15 15 15 15ZM32 15C32 15 33 15 33 15C33 15 33 16 33 16C33 16 32 16 32 16C32 16 32 15 32 15ZM35 15C35 15 36 15 36 15C36 15 36 16 36 16C36 16 35 16 35 16C35 16 35 15 35 15ZM18 16C18 16 19 16 19 16C19 16 19 17 19 17C19 17 18 17 18 17C18 17 18 16 18 16ZM33 16C33 16 34 16 34 16C34 16 34 17 34 17C34 17 33 17 33 17C33 17 33 16 33 16ZM30 17C30 17 31 17 31 17C31 17 31 18 31 18C31 18 30 18 30 18C30 18 30 17 30 17ZM32 17C32 17 33 17 33 17C33 17 33 18 33 18C33 18 32 18 32 18C32 18 32 17 32 17ZM29 18C29 18 30 18 30 18C30 18 30 19 30 19C30 19 29 19 29 19C29 19 29 18 29 18ZM31 18C31 18 32 18 32 18C32 18 32 19 32 19C32 19 31 19 31 19C31 19 31 18 31 18ZM38 18C38 18 39 18 39 18C39 18 39 19 39 19C39 19 38 19 38 19C38 19 38 18 38 18ZM15 21C15 21 16 21 16 21C16 21 16 22 16 22C16 22 15 22 15 22C15 22 15 21 15 21ZM16 22C16 22 17 22 17 22C17 22 17 23 17 23C17 23 16 23 16 23C16 23 16 22 16 22ZM25 26C25 26 26 26 26 26C26 26 26 27 26 27C26 27 25 27 25 27C25 27 25 26 25 26ZM22 27C22 27 23 27 23 27C23 27 23 28 23 28C23 28 22 28 22 28C22 28 22 27 22 27ZM13 11C13 11 14 11 14 11C14 11 14 12 14 12C14 12 13 12 13 12C13 12 13 11 13 11ZM12 13C12 13 13 13 13 13C13 13 13 14 13 14C13 14 12 14 12 14C12 14 12 13 12 13ZM13 13C13 13 14 13 14 13C14 13 14 14 14 14C14 14 13 14 13 14C13 14 13 13 13 13ZM13 14C13 14 14 14 14 14C14 14 14 15 14 15C14 15 13 15 13 15C13 15 13 14 13 14ZM13 15C13 15 14 15 14 15C14 15 14 16 14 16C14 16 13 16 13 16C13 16 13 15 13 15ZM12 17C12 17 13 17 13 17C13 17 13 18 13 18C13 18 12 18 12 18C12 18 12 17 12 17ZM14 17C14 17 15 17 15 17C15 17 15 18 15 18C15 18 14 18 14 18C14 18 14 17 14 17ZM16 17C16 17 17 17 17 17C17 17 17 18 17 18C17 18 16 18 16 18C16 18 16 17 16 17ZM15 18C15 18 16 18 16 18C16 18 16 19 16 19C16 19 15 19 15 19C15 19 15 18 15 18ZM20 18C20 18 21 18 21 18C21 18 21 19 21 19C21 19 20 19 20 19C20 19 20 18 20 18ZM23 18C23 18 24 18 24 18C24 18 24 19 24 19C24 19 23 19 23 19C23 19 23 18 23 18ZM26 18C26 18 27 18 27 18C27 18 27 19 27 19C27 19 26 19 26 19C26 19 26 18 26 18ZM13 19C13 19 14 19 14 19C14 19 14 20 14 20C14 20 13 20 13 20C13 20 13 19 13 19ZM16 19C16 19 17 19 17 19C17 19 17 20 17 20C17 20 16 20 16 20C16 20 16 19 16 19ZM18 19C18 19 19 19 19 19C19 19 19 20 19 20C19 20 18 20 18 20C18 20 18 19 18 19ZM28 19C28 19 29 19 29 19C29 19 29 20 29 20C29 20 28 20 28 20C28 20 28 19 28 19ZM30 19C30 19 31 19 31 19C31 19 31 20 31 20C31 20 30 20 30 20C30 20 30 19 30 19ZM25 21C25 21 26 21 26 21C26 21 26 22 26 22C26 22 25 22 25 22C25 22 25 21 25 21ZM24 22C24 22 25 22 25 22C25 22 25 23 25 23C25 23 24 23 24 23C24 23 24 22 24 22ZM27 22C27 22 28 22 28 22C28 22 28 23 28 23C28 23 27 23 27 23C27 23 27 22 27 22ZM17 23C17 23 18 23 18 23C18 23 18 24 18 24C18 24 17 24 17 24C17 24 17 23 17 23ZM19 23C19 23 20 23 20 23C20 23 20 24 20 24C20 24 19 24 19 24C19 24 19 23 19 23ZM25 23C25 23 26 23 26 23C26 23 26 24 26 24C26 24 25 24 25 24C25 24 25 23 25 23ZM28 23C28 23 29 23 29 23C29 23 29 24 29 24C29 24 28 24 28 24C28 24 28 23 28 23ZM17 24C17 24 18 24 18 24C18 24 18 25 18 25C18 25 17 25 17 25C17 25 17 24 17 24ZM16 25C16 25 17 25 17 25C17 25 17 26 17 26C17 26 16 26 16 26C16 26 16 25 16 25ZM17 25C17 25 18 25 18 25C18 25 18 26 18 26C18 26 17 26 17 26C17 26 17 25 17 25ZM31 25C31 25 32 25 32 25C32 25 32 26 32 26C32 26 31 26 31 26C31 26 31 25 31 25ZM15 26C15 26 16 26 16 26C16 26 16 27 16 27C16 27 15 27 15 27C15 27 15 26 15 26ZM17 26C17 26 18 26 18 26C18 26 18 27 18 27C18 27 17 27 17 27C17 27 17 26 17 26ZM19 26C19 26 20 26 20 26C20 26 20 27 20 27C20 27 19 27 19 27C19 27 19 26 19 26ZM28 26C28 26 29 26 29 26C29 26 29 27 29 27C29 27 28 27 28 27C28 27 28 26 28 26ZM31 26C31 26 32 26 32 26C32 26 32 27 32 27C32 27 31 27 31 27C31 27 31 26 31 26ZM26 27C26 27 27 27 27 27C27 27 27 28 27 28C27 28 26 28 26 28C26 28 26 27 26 27ZM27 27C27 27 28 27 28 27C28 27 28 28 28 28C28 28 27 28 27 28C27 28 27 27 27 27ZM32 27C32 27 33 27 33 27C33 27 33 28 33 28C33 28 32 28 32 28C32 28 32 27 32 27ZM15 28C15 28 16 28 16 28C16 28 16 29 16 29C16 29 15 29 15 29C15 29 15 28 15 28ZM24 28C24 28 25 28 25 28C25 28 25 29 25 29C25 29 24 29 24 29C24 29 24 28 24 28ZM16 29C16 29 17 29 17 29C17 29 17 30 17 30C17 30 16 30 16 30C16 30 16 29 16 29ZM20 29C20 29 21 29 21 29C21 29 21 30 21 30C21 30 20 30 20 30C20 30 20 29 20 29ZM23 29C23 29 24 29 24 29C24 29 24 30 24 30C24 30 23 30 23 30C23 30 23 29 23 29ZM29 29C29 29 30 29 30 29C30 29 30 30 30 30C30 30 29 30 29 30C29 30 29 29 29 29ZM15 30C15 30 16 30 16 30C16 30 16 31 16 31C16 31 15 31 15 31C15 31 15 30 15 30ZM17 30C17 30 18 30 18 30C18 30 18 31 18 31C18 31 17 31 17 31C17 31 17 30 17 30ZM18 30C18 30 19 30 19 30C19 30 19 31 19 31C19 31 18 31 18 31C18 31 18 30 18 30ZM27 30C27 30 28 30 28 30C28 30 28 31 28 31C28 31 27 31 27 31C27 31 27 30 27 30ZM28 30C28 30 29 30 29 30C29 30 29 31 29 31C29 31 28 31 28 31C28 31 28 30 28 30ZM14 31C14 31 15 31 15 31C15 31 15 32 15 32C15 32 14 32 14 32C14 32 14 31 14 31ZM25 31C25 31 26 31 26 31C26 31 26 32 26 32C26 32 25 32 25 32C25 32 25 31 25 31ZM26 31C26 31 27 31 27 31C27 31 27 32 27 32C27 32 26 32 26 32C26 32 26 31 26 31ZM28 31C28 31 29 31 29 31C29 31 29 32 29 32C29 32 28 32 28 32C28 32 28 31 28 31ZM34 31C34 31 35 31 35 31C35 31 35 32 35 32C35 32 34 32 34 32C34 32 34 31 34 31ZM35 31C35 31 36 31 36 31C36 31 36 32 36 32C36 32 35 32 35 32C35 32 35 31 35 31ZM13 32C13 32 14 32 14 32C14 32 14 33 14 33C14 33 13 33 13 33C13 33 13 32 13 32ZM17 34C17 34 18 34 18 34C18 34 18 35 18 35C18 35 17 35 17 35C17 35 17 34 17 34ZM13 35C13 35 14 35 14 35C14 35 14 36 14 36C14 36 13 36 13 36C13 36 13 35 13 35ZM14 36C14 36 15 36 15 36C15 36 15 37 15 37C15 37 14 37 14 37C14 37 14 36 14 36ZM16 36C16 36 17 36 17 36C17 36 17 37 17 37C17 37 16 37 16 37C16 37 16 36 16 36ZM36 36C36 36 37 36 37 36C37 36 37 37 37 37C37 37 36 37 36 37C36 37 36 36 36 36ZM15 37C15 37 16 37 16 37C16 37 16 38 16 38C16 38 15 38 15 38C15 38 15 37 15 37ZM13 38C13 38 14 38 14 38C14 38 14 39 14 39C14 39 13 39 13 39C13 39 13 38 13 38ZM45 38C45 38 46 38 46 38C46 38 46 39 46 39C46 39 45 39 45 39C45 39 45 38 45 38ZM26 39C26 39 27 39 27 39C27 39 27 40 27 40C27 40 26 40 26 40C26 40 26 39 26 39ZM28 39C28 39 29 39 29 39C29 39 29 40 29 40C29 40 28 40 28 40C28 40 28 39 28 39ZM32 39C32 39 33 39 33 39C33 39 33 40 33 40C33 40 32 40 32 40C32 40 32 39 32 39ZM33 39C33 39 34 39 34 39C34 39 34 40 34 40C34 40 33 40 33 40C33 40 33 39 33 39ZM34 39C34 39 35 39 35 39C35 39 35 40 35 40C35 40 34 40 34 40C34 40 34 39 34 39ZM35 39C35 39 36 39 36 39C36 39 36 40 36 40C36 40 35 40 35 40C35 40 35 39 35 39ZM13 41C13 41 14 41 14 41C14 41 14 42 14 42C14 42 13 42 13 42C13 42 13 41 13 41ZM15 41C15 41 16 41 16 41C16 41 16 42 16 42C16 42 15 42 15 42C15 42 15 41 15 41ZM15 42C15 42 16 42 16 42C16 42 16 43 16 43C16 43 15 43 15 43C15 43 15 42 15 42ZM15 43C15 43 16 43 16 43C16 43 16 44 16 44C16 44 15 44 15 44C15 44 15 43 15 43ZM17 43C17 43 18 43 18 43C18 43 18 44 18 44C18 44 17 44 17 44C17 44 17 43 17 43ZM25 44C25 44 26 44 26 44C26 44 26 45 26 45C26 45 25 45 25 45C25 45 25 44 25 44ZM25 45C25 45 26 45 26 45C26 45 26 46 26 46C26 46 25 46 25 46C25 46 25 45 25 45ZM40 11C40 11 41 11 41 11C41 11 41 12 41 12C41 12 40 12 40 12C40 12 40 11 40 11ZM42 11C42 11 43 11 43 11C43 11 43 12 43 12C43 12 42 12 42 12C42 12 42 11 42 11ZM44 11C44 11 45 11 45 11C45 11 45 12 45 12C45 12 44 12 44 12C44 12 44 11 44 11ZM39 12C39 12 40 12 40 12C40 12 40 13 40 13C40 13 39 13 39 13C39 13 39 12 39 12ZM43 12C43 12 44 12 44 12C44 12 44 13 44 13C44 13 43 13 43 13C43 13 43 12 43 12ZM44 12C44 12 45 12 45 12C45 12 45 13 45 13C45 13 44 13 44 13C44 13 44 12 44 12ZM40 13C40 13 41 13 41 13C41 13 41 14 41 14C41 14 40 14 40 14C40 14 40 13 40 13ZM43 13C43 13 44 13 44 13C44 13 44 14 44 14C44 14 43 14 43 14C43 14 43 13 43 13ZM42 14C42 14 43 14 43 14C43 14 43 15 43 15C43 15 42 15 42 15C42 15 42 14 42 14ZM43 14C43 14 44 14 44 14C44 14 44 15 44 15C44 15 43 15 43 15C43 15 43 14 43 14ZM41 15C41 15 42 15 42 15C42 15 42 16 42 16C42 16 41 16 41 16C41 16 41 15 41 15ZM42 15C42 15 43 15 43 15C43 15 43 16 43 16C43 16 42 16 42 16C42 16 42 15 42 15ZM40 16C40 16 41 16 41 16C41 16 41 17 41 17C41 17 40 17 40 17C40 17 40 16 40 16ZM41 16C41 16 42 16 42 16C42 16 42 17 42 17C42 17 41 17 41 17C41 17 41 16 41 16ZM39 17C39 17 40 17 40 17C40 17 40 18 40 18C40 18 39 18 39 18C39 18 39 17 39 17ZM40 17C40 17 41 17 41 17C41 17 41 18 41 18C41 18 40 18 40 18C40 18 40 17 40 17ZM39 18C39 18 40 18 40 18C40 18 40 19 40 19C40 19 39 19 39 19C39 19 39 18 39 18ZM36 19C36 19 37 19 37 19C37 19 37 20 37 20C37 20 36 20 36 20C36 20 36 19 36 19ZM37 19C37 19 38 19 38 19C38 19 38 20 38 20C38 20 37 20 37 20C37 20 37 19 37 19ZM38 19C38 19 39 19 39 19C39 19 39 20 39 20C39 20 38 20 38 20C38 20 38 19 38 19ZM42 19C42 19 43 19 43 19C43 19 43 20 43 20C43 20 42 20 42 20C42 20 42 19 42 19ZM33 20C33 20 34 20 34 20C34 20 34 21 34 21C34 21 33 21 33 21C33 21 33 20 33 20ZM34 20C34 20 35 20 35 20C35 20 35 21 35 21C35 21 34 21 34 21C34 21 34 20 34 20ZM35 20C35 20 36 20 36 20C36 20 36 21 36 21C36 21 35 21 35 21C35 21 35 20 35 20ZM36 20C36 20 37 20 37 20C37 20 37 21 37 21C37 21 36 21 36 21C36 21 36 20 36 20ZM43 20C43 20 44 20 44 20C44 20 44 21 44 21C44 21 43 21 43 21C43 21 43 20 43 20ZM32 21C32 21 33 21 33 21C33 21 33 22 33 22C33 22 32 22 32 22C32 22 32 21 32 21ZM33 21C33 21 34 21 34 21C34 21 34 22 34 22C34 22 33 22 33 22C33 22 33 21 33 21ZM34 21C34 21 35 21 35 21C35 21 35 22 35 22C35 22 34 22 34 22C34 22 34 21 34 21ZM44 21C44 21 45 21 45 21C45 21 45 22 45 22C45 22 44 22 44 22C44 22 44 21 44 21ZM31 22C31 22 32 22 32 22C32 22 32 23 32 23C32 23 31 23 31 23C31 23 31 22 31 22ZM31 23C31 23 32 23 32 23C32 23 32 24 32 24C32 24 31 24 31 24C31 24 31 23 31 23ZM42 23C42 23 43 23 43 23C43 23 43 24 43 24C43 24 42 24 42 24C42 24 42 23 42 23ZM31 24C31 24 32 24 32 24C32 24 32 25 32 25C32 25 31 25 31 25C31 25 31 24 31 24ZM46 24C46 24 47 24 47 24C47 24 47 25 47 25C47 25 46 25 46 25C46 25 46 24 46 24ZM30 25C30 25 31 25 31 25C31 25 31 26 31 26C31 26 30 26 30 26C30 26 30 25 30 25ZM41 25C41 25 42 25 42 25C42 25 42 26 42 26C42 26 41 26 41 26C41 26 41 25 41 25ZM30 26C30 26 31 26 31 26C31 26 31 27 31 27C31 27 30 27 30 27C30 27 30 26 30 26ZM46 26C46 26 47 26 47 26C47 26 47 27 47 27C47 27 46 27 46 27C46 27 46 26 46 26ZM30 27C30 27 31 27 31 27C31 27 31 28 31 28C31 28 30 28 30 28C30 28 30 27 30 27ZM31 27C31 27 32 27 32 27C32 27 32 28 32 28C32 28 31 28 31 28C31 28 31 27 31 27ZM39 27C39 27 40 27 40 27C40 27 40 28 40 28C40 28 39 28 39 28C39 28 39 27 39 27ZM47 27C47 27 48 27 48 27C48 27 48 28 48 28C48 28 47 28 47 28C47 28 47 27 47 27ZM29 28C29 28 30 28 30 28C30 28 30 29 30 29C30 29 29 29 29 29C29 29 29 28 29 28ZM30 28C30 28 31 28 31 28C31 28 31 29 31 29C31 29 30 29 30 29C30 29 30 28 30 28ZM31 28C31 28 32 28 32 28C32 28 32 29 32 29C32 29 31 29 31 29C31 29 31 28 31 28ZM27 29C27 29 28 29 28 29C28 29 28 30 28 30C28 30 27 30 27 30C27 30 27 29 27 29ZM28 29C28 29 29 29 29 29C29 29 29 30 29 30C29 30 28 30 28 30C28 30 28 29 28 29ZM30 29C30 29 31 29 31 29C31 29 31 30 31 30C31 30 30 30 30 30C30 30 30 29 30 29ZM25 30C25 30 26 30 26 30C26 30 26 31 26 31C26 31 25 31 25 31C25 31 25 30 25 30ZM26 30C26 30 27 30 27 30C27 30 27 31 27 31C27 31 26 31 26 31C26 31 26 30 26 30ZM29 30C29 30 30 30 30 30C30 30 30 31 30 31C30 31 29 31 29 31C29 31 29 30 29 30ZM19 31C19 31 20 31 20 31C20 31 20 32 20 32C20 32 19 32 19 32C19 32 19 31 19 31ZM20 31C20 31 21 31 21 31C21 31 21 32 21 32C21 32 20 32 20 32C20 32 20 31 20 31ZM21 31C21 31 22 31 22 31C22 31 22 32 22 32C22 32 21 32 21 32C21 32 21 31 21 31ZM22 31C22 31 23 31 23 31C23 31 23 32 23 32C23 32 22 32 22 32C22 32 22 31 22 31ZM23 31C23 31 24 31 24 31C24 31 24 32 24 32C24 32 23 32 23 32C23 32 23 31 23 31ZM24 31C24 31 25 31 25 31C25 31 25 32 25 32C25 32 24 32 24 32C24 32 24 31 24 31ZM27 31C27 31 28 31 28 31C28 31 28 32 28 32C28 32 27 32 27 32C27 32 27 31 27 31ZM19 32C19 32 20 32 20 32C20 32 20 33 20 33C20 33 19 33 19 33C19 33 19 32 19 32ZM20 32C20 32 21 32 21 32C21 32 21 33 21 33C21 33 20 33 20 33C20 33 20 32 20 32ZM27 32C27 32 28 32 28 32C28 32 28 33 28 33C28 33 27 33 27 33C27 33 27 32 27 32ZM46 33C46 33 47 33 47 33C47 33 47 34 47 34C47 34 46 34 46 34C46 34 46 33 46 33ZM47 33C47 33 48 33 48 33C48 33 48 34 48 34C48 34 47 34 47 34C47 34 47 33 47 33ZM35 34C35 34 36 34 36 34C36 34 36 35 36 35C36 35 35 35 35 35C35 35 35 34 35 34ZM46 34C46 34 47 34 47 34C47 34 47 35 47 35C47 35 46 35 46 35C46 35 46 34 46 34ZM34 35C34 35 35 35 35 35C35 35 35 36 35 36C35 36 34 36 34 36C34 36 34 35 34 35ZM45 35C45 35 46 35 46 35C46 35 46 36 46 36C46 36 45 36 45 36C45 36 45 35 45 35ZM28 36C28 36 29 36 29 36C29 36 29 37 29 37C29 37 28 37 28 37C28 37 28 36 28 36ZM33 36C33 36 34 36 34 36C34 36 34 37 34 37C34 37 33 37 33 37C33 37 33 36 33 36ZM34 36C34 36 35 36 35 36C35 36 35 37 35 37C35 37 34 37 34 37C34 37 34 36 34 36ZM45 36C45 36 46 36 46 36C46 36 46 37 46 37C46 37 45 37 45 37C45 37 45 36 45 36ZM46 36C46 36 47 36 47 36C47 36 47 37 47 37C47 37 46 37 46 37C46 37 46 36 46 36ZM32 37C32 37 33 37 33 37C33 37 33 38 33 38C33 38 32 38 32 38C32 38 32 37 32 37ZM34 37C34 37 35 37 35 37C35 37 35 38 35 38C35 38 34 38 34 38C34 38 34 37 34 37ZM35 37C35 37 36 37 36 37C36 37 36 38 36 38C36 38 35 38 35 38C35 38 35 37 35 37ZM43 37C43 37 44 37 44 37C44 37 44 38 44 38C44 38 43 38 43 38C43 38 43 37 43 37ZM44 37C44 37 45 37 45 37C45 37 45 38 45 38C45 38 44 38 44 38C44 38 44 37 44 37ZM17 38C17 38 18 38 18 38C18 38 18 39 18 39C18 39 17 39 17 39C17 39 17 38 17 38ZM18 38C18 38 19 38 19 38C19 38 19 39 19 39C19 39 18 39 18 39C18 39 18 38 18 38ZM27 38C27 38 28 38 28 38C28 38 28 39 28 39C28 39 27 39 27 39C27 39 27 38 27 38ZM29 38C29 38 30 38 30 38C30 38 30 39 30 39C30 39 29 39 29 39C29 39 29 38 29 38ZM33 38C33 38 34 38 34 38C34 38 34 39 34 39C34 39 33 39 33 39C33 39 33 38 33 38ZM34 38C34 38 35 38 35 38C35 38 35 39 35 39C35 39 34 39 34 39C34 39 34 38 34 38ZM35 38C35 38 36 38 36 38C36 38 36 39 36 39C36 39 35 39 35 39C35 39 35 38 35 38ZM40 38C40 38 41 38 41 38C41 38 41 39 41 39C41 39 40 39 40 39C40 39 40 38 40 38ZM41 38C41 38 42 38 42 38C42 38 42 39 42 39C42 39 41 39 41 39C41 39 41 38 41 38ZM42 38C42 38 43 38 43 38C43 38 43 39 43 39C43 39 42 39 42 39C42 39 42 38 42 38ZM43 38C43 38 44 38 44 38C44 38 44 39 44 39C44 39 43 39 43 39C43 39 43 38 43 38ZM44 38C44 38 45 38 45 38C45 38 45 39 45 39C45 39 44 39 44 39C44 39 44 38 44 38ZM17 39C17 39 18 39 18 39C18 39 18 40 18 40C18 40 17 40 17 40C17 40 17 39 17 39ZM20 39C20 39 21 39 21 39C21 39 21 40 21 40C21 40 20 40 20 40C20 40 20 39 20 39ZM31 39C31 39 32 39 32 39C32 39 32 40 32 40C32 40 31 40 31 40C31 40 31 39 31 39ZM37 39C37 39 38 39 38 39C38 39 38 40 38 40C38 40 37 40 37 40C37 40 37 39 37 39ZM38 39C38 39 39 39 39 39C39 39 39 40 39 40C39 40 38 40 38 40C38 40 38 39 38 39ZM39 39C39 39 40 39 40 39C40 39 40 40 40 40C40 40 39 40 39 40C39 40 39 39 39 39ZM40 39C40 39 41 39 41 39C41 39 41 40 41 40C41 40 40 40 40 40C40 40 40 39 40 39ZM41 39C41 39 42 39 42 39C42 39 42 40 42 40C42 40 41 40 41 40C41 40 41 39 41 39ZM42 39C42 39 43 39 43 39C43 39 43 40 43 40C43 40 42 40 42 40C42 40 42 39 42 39ZM44 39C44 39 45 39 45 39C45 39 45 40 45 40C45 40 44 40 44 40C44 40 44 39 44 39ZM18 40C18 40 19 40 19 40C19 40 19 41 19 41C19 41 18 41 18 41C18 41 18 40 18 40ZM26 40C26 40 27 40 27 40C27 40 27 41 27 41C27 41 26 41 26 41C26 41 26 40 26 40ZM27 40C27 40 28 40 28 40C28 40 28 41 28 41C28 41 27 41 27 41C27 41 27 40 27 40ZM28 40C28 40 29 40 29 40C29 40 29 41 29 41C29 41 28 41 28 41C28 41 28 40 28 40ZM29 40C29 40 30 40 30 40C30 40 30 41 30 41C30 41 29 41 29 41C29 41 29 40 29 40ZM30 40C30 40 31 40 31 40C31 40 31 41 31 41C31 41 30 41 30 41C30 41 30 40 30 40ZM31 40C31 40 32 40 32 40C32 40 32 41 32 41C32 41 31 41 31 41C31 41 31 40 31 40ZM33 40C33 40 34 40 34 40C34 40 34 41 34 41C34 41 33 41 33 41C33 41 33 40 33 40ZM34 40C34 40 35 40 35 40C35 40 35 41 35 41C35 41 34 41 34 41C34 41 34 40 34 40ZM35 40C35 40 36 40 36 40C36 40 36 41 36 41C36 41 35 41 35 41C35 41 35 40 35 40ZM37 40C37 40 38 40 38 40C38 40 38 41 38 41C38 41 37 41 37 41C37 41 37 40 37 40ZM38 40C38 40 39 40 39 40C39 40 39 41 39 41C39 41 38 41 38 41C38 41 38 40 38 40ZM39 40C39 40 40 40 40 40C40 40 40 41 40 41C40 41 39 41 39 41C39 41 39 40 39 40ZM40 40C40 40 41 40 41 40C41 40 41 41 41 41C41 41 40 41 40 41C40 41 40 40 40 40ZM42 40C42 40 43 40 43 40C43 40 43 41 43 41C43 41 42 41 42 41C42 41 42 40 42 40ZM20 41C20 41 21 41 21 41C21 41 21 42 21 42C21 42 20 42 20 42C20 42 20 41 20 41ZM24 41C24 41 25 41 25 41C25 41 25 42 25 42C25 42 24 42 24 42C24 42 24 41 24 41ZM26 41C26 41 27 41 27 41C27 41 27 42 27 42C27 42 26 42 26 42C26 42 26 41 26 41ZM27 41C27 41 28 41 28 41C28 41 28 42 28 42C28 42 27 42 27 42C27 42 27 41 27 41ZM28 41C28 41 29 41 29 41C29 41 29 42 29 42C29 42 28 42 28 42C28 42 28 41 28 41ZM29 41C29 41 30 41 30 41C30 41 30 42 30 42C30 42 29 42 29 42C29 42 29 41 29 41ZM33 41C33 41 34 41 34 41C34 41 34 42 34 42C34 42 33 42 33 42C33 42 33 41 33 41ZM34 41C34 41 35 41 35 41C35 41 35 42 35 42C35 42 34 42 34 42C34 42 34 41 34 41ZM35 41C35 41 36 41 36 41C36 41 36 42 36 42C36 42 35 42 35 42C35 42 35 41 35 41ZM36 41C36 41 37 41 37 41C37 41 37 42 37 42C37 42 36 42 36 42C36 42 36 41 36 41ZM39 41C39 41 40 41 40 41C40 41 40 42 40 42C40 42 39 42 39 42C39 42 39 41 39 41ZM26 42C26 42 27 42 27 42C27 42 27 43 27 43C27 43 26 43 26 43C26 43 26 42 26 42ZM27 42C27 42 28 42 28 42C28 42 28 43 28 43C28 43 27 43 27 43C27 43 27 42 27 42ZM28 42C28 42 29 42 29 42C29 42 29 43 29 43C29 43 28 43 28 43C28 43 28 42 28 42ZM34 42C34 42 35 42 35 42C35 42 35 43 35 43C35 43 34 43 34 43C34 43 34 42 34 42ZM35 42C35 42 36 42 36 42C36 42 36 43 36 43C36 43 35 43 35 43C35 43 35 42 35 42ZM36 42C36 42 37 42 37 42C37 42 37 43 37 43C37 43 36 43 36 43C36 43 36 42 36 42ZM26 43C26 43 27 43 27 43C27 43 27 44 27 44C27 44 26 44 26 44C26 44 26 43 26 43ZM27 43C27 43 28 43 28 43C28 43 28 44 28 44C28 44 27 44 27 44C27 44 27 43 27 43ZM28 43C28 43 29 43 29 43C29 43 29 44 29 44C29 44 28 44 28 44C28 44 28 43 28 43ZM34 43C34 43 35 43 35 43C35 43 35 44 35 44C35 44 34 44 34 44C34 44 34 43 34 43ZM35 43C35 43 36 43 36 43C36 43 36 44 36 44C36 44 35 44 35 44C35 44 35 43 35 43ZM36 43C36 43 37 43 37 43C37 43 37 44 37 44C37 44 36 44 36 44C36 44 36 43 36 43ZM22 44C22 44 23 44 23 44C23 44 23 45 23 45C23 45 22 45 22 45C22 45 22 44 22 44ZM26 44C26 44 27 44 27 44C27 44 27 45 27 45C27 45 26 45 26 45C26 45 26 44 26 44ZM27 44C27 44 28 44 28 44C28 44 28 45 28 45C28 45 27 45 27 45C27 45 27 44 27 44ZM30 44C30 44 31 44 31 44C31 44 31 45 31 45C31 45 30 45 30 45C30 45 30 44 30 44ZM34 44C34 44 35 44 35 44C35 44 35 45 35 45C35 45 34 45 34 45C34 45 34 44 34 44ZM35 44C35 44 36 44 36 44C36 44 36 45 36 45C36 45 35 45 35 45C35 45 35 44 35 44ZM37 44C37 44 38 44 38 44C38 44 38 45 38 45C38 45 37 45 37 45C37 45 37 44 37 44ZM26 45C26 45 27 45 27 45C27 45 27 46 27 46C27 46 26 46 26 46C26 46 26 45 26 45ZM27 45C27 45 28 45 28 45C28 45 28 46 28 46C28 46 27 46 27 46C27 46 27 45 27 45ZM29 45C29 45 30 45 30 45C30 45 30 46 30 46C30 46 29 46 29 46C29 46 29 45 29 45ZM33 45C33 45 34 45 34 45C34 45 34 46 34 46C34 46 33 46 33 46C33 46 33 45 33 45ZM36 45C36 45 37 45 37 45C37 45 37 46 37 46C37 46 36 46 36 46C36 46 36 45 36 45ZM23 46C23 46 24 46 24 46C24 46 24 47 24 47C24 47 23 47 23 47C23 47 23 46 23 46ZM27 46C27 46 28 46 28 46C28 46 28 47 28 47C28 47 27 47 27 47C27 47 27 46 27 46ZM28 46C28 46 29 46 29 46C29 46 29 47 29 47C29 47 28 47 28 47C28 47 28 46 28 46Z" id="Combined-Shape-Copy-2" fill="#6A6C39" stroke="none" clip-path="url(#clip_1)" />
    <path d="M10 10C10 10 11 10 11 10C11 10 11 11 11 11C11 11 10 11 10 11C10 11 10 10 10 10ZM10 11C10 11 11 11 11 11C11 11 11 12 11 12C11 12 10 12 10 12C10 12 10 11 10 11ZM11 11C11 11 12 11 12 11C12 11 12 12 12 12C12 12 11 12 11 12C11 12 11 11 11 11ZM12 12C12 12 13 12 13 12C13 12 13 13 13 13C13 13 12 13 12 13C12 13 12 12 12 12ZM13 12C13 12 14 12 14 12C14 12 14 13 14 13C14 13 13 13 13 13C13 13 13 12 13 12ZM40 12C40 12 41 12 41 12C41 12 41 13 41 13C41 13 40 13 40 13C40 13 40 12 40 12ZM41 12C41 12 42 12 42 12C42 12 42 13 42 13C42 13 41 13 41 13C41 13 41 12 41 12ZM11 13C11 13 12 13 12 13C12 13 12 14 12 14C12 14 11 14 11 14C11 14 11 13 11 13ZM14 13C14 13 15 13 15 13C15 13 15 14 15 14C15 14 14 14 14 14C14 14 14 13 14 13ZM15 13C15 13 16 13 16 13C16 13 16 14 16 14C16 14 15 14 15 14C15 14 15 13 15 13ZM37 13C37 13 38 13 38 13C38 13 38 14 38 14C38 14 37 14 37 14C37 14 37 13 37 13ZM38 13C38 13 39 13 39 13C39 13 39 14 39 14C39 14 38 14 38 14C38 14 38 13 38 13ZM39 13C39 13 40 13 40 13C40 13 40 14 40 14C40 14 39 14 39 14C39 14 39 13 39 13ZM12 14C12 14 13 14 13 14C13 14 13 15 13 15C13 15 12 15 12 15C12 15 12 14 12 14ZM15 14C15 14 16 14 16 14C16 14 16 15 16 15C16 15 15 15 15 15C15 15 15 14 15 14ZM16 14C16 14 17 14 17 14C17 14 17 15 17 15C17 15 16 15 16 15C16 15 16 14 16 14ZM35 14C35 14 36 14 36 14C36 14 36 15 36 15C36 15 35 15 35 15C35 15 35 14 35 14ZM36 14C36 14 37 14 37 14C37 14 37 15 37 15C37 15 36 15 36 15C36 15 36 14 36 14ZM12 15C12 15 13 15 13 15C13 15 13 16 13 16C13 16 12 16 12 16C12 16 12 15 12 15ZM16 15C16 15 17 15 17 15C17 15 17 16 17 16C17 16 16 16 16 16C16 16 16 15 16 15ZM33 15C33 15 34 15 34 15C34 15 34 16 34 16C34 16 33 16 33 16C33 16 33 15 33 15ZM34 15C34 15 35 15 35 15C35 15 35 16 35 16C35 16 34 16 34 16C34 16 34 15 34 15ZM13 16C13 16 14 16 14 16C14 16 14 17 14 17C14 17 13 17 13 17C13 17 13 16 13 16ZM16 16C16 16 17 16 17 16C17 16 17 17 17 17C17 17 16 17 16 17C16 17 16 16 16 16ZM17 16C17 16 18 16 18 16C18 16 18 17 18 17C18 17 17 17 17 17C17 17 17 16 17 16ZM32 16C32 16 33 16 33 16C33 16 33 17 33 17C33 17 32 17 32 17C32 17 32 16 32 16ZM13 17C13 17 14 17 14 17C14 17 14 18 14 18C14 18 13 18 13 18C13 18 13 17 13 17ZM17 17C17 17 18 17 18 17C18 17 18 18 18 18C18 18 17 18 17 18C17 18 17 17 17 17ZM31 17C31 17 32 17 32 17C32 17 32 18 32 18C32 18 31 18 31 18C31 18 31 17 31 17ZM14 18C14 18 15 18 15 18C15 18 15 19 15 19C15 19 14 19 14 19C14 19 14 18 14 18ZM17 18C17 18 18 18 18 18C18 18 18 19 18 19C18 19 17 19 17 19C17 19 17 18 17 18ZM18 18C18 18 19 18 19 18C19 18 19 19 19 19C19 19 18 19 18 19C18 19 18 18 18 18ZM21 18C21 18 22 18 22 18C22 18 22 19 22 19C22 19 21 19 21 19C21 19 21 18 21 18ZM22 18C22 18 23 18 23 18C23 18 23 19 23 19C23 19 22 19 22 19C22 19 22 18 22 18ZM24 18C24 18 25 18 25 18C25 18 25 19 25 19C25 19 24 19 24 19C24 19 24 18 24 18ZM25 18C25 18 26 18 26 18C26 18 26 19 26 19C26 19 25 19 25 19C25 19 25 18 25 18ZM30 18C30 18 31 18 31 18C31 18 31 19 31 19C31 19 30 19 30 19C30 19 30 18 30 18ZM14 19C14 19 15 19 15 19C15 19 15 20 15 20C15 20 14 20 14 20C14 20 14 19 14 19ZM15 19C15 19 16 19 16 19C16 19 16 20 16 20C16 20 15 20 15 20C15 20 15 19 15 19ZM17 19C17 19 18 19 18 19C18 19 18 20 18 20C18 20 17 20 17 20C17 20 17 19 17 19ZM19 19C19 19 20 19 20 19C20 19 20 20 20 20C20 20 19 20 19 20C19 20 19 19 19 19ZM20 19C20 19 21 19 21 19C21 19 21 20 21 20C21 20 20 20 20 20C20 20 20 19 20 19ZM21 19C21 19 22 19 22 19C22 19 22 20 22 20C22 20 21 20 21 20C21 20 21 19 21 19ZM22 19C22 19 23 19 23 19C23 19 23 20 23 20C23 20 22 20 22 20C22 20 22 19 22 19ZM23 19C23 19 24 19 24 19C24 19 24 20 24 20C24 20 23 20 23 20C23 20 23 19 23 19ZM24 19C24 19 25 19 25 19C25 19 25 20 25 20C25 20 24 20 24 20C24 20 24 19 24 19ZM25 19C25 19 26 19 26 19C26 19 26 20 26 20C26 20 25 20 25 20C25 20 25 19 25 19ZM26 19C26 19 27 19 27 19C27 19 27 20 27 20C27 20 26 20 26 20C26 20 26 19 26 19ZM27 19C27 19 28 19 28 19C28 19 28 20 28 20C28 20 27 20 27 20C27 20 27 19 27 19ZM29 19C29 19 30 19 30 19C30 19 30 20 30 20C30 20 29 20 29 20C29 20 29 19 29 19ZM15 20C15 20 16 20 16 20C16 20 16 21 16 21C16 21 15 21 15 21C15 21 15 20 15 20ZM16 20C16 20 17 20 17 20C17 20 17 21 17 21C17 21 16 21 16 21C16 21 16 20 16 20ZM17 20C17 20 18 20 18 20C18 20 18 21 18 21C18 21 17 21 17 21C17 21 17 20 17 20ZM18 20C18 20 19 20 19 20C19 20 19 21 19 21C19 21 18 21 18 21C18 21 18 20 18 20ZM19 20C19 20 20 20 20 20C20 20 20 21 20 21C20 21 19 21 19 21C19 21 19 20 19 20ZM20 20C20 20 21 20 21 20C21 20 21 21 21 21C21 21 20 21 20 21C20 21 20 20 20 20ZM21 20C21 20 22 20 22 20C22 20 22 21 22 21C22 21 21 21 21 21C21 21 21 20 21 20ZM22 20C22 20 23 20 23 20C23 20 23 21 23 21C23 21 22 21 22 21C22 21 22 20 22 20ZM23 20C23 20 24 20 24 20C24 20 24 21 24 21C24 21 23 21 23 21C23 21 23 20 23 20ZM24 20C24 20 25 20 25 20C25 20 25 21 25 21C25 21 24 21 24 21C24 21 24 20 24 20ZM25 20C25 20 26 20 26 20C26 20 26 21 26 21C26 21 25 21 25 21C25 21 25 20 25 20ZM26 20C26 20 27 20 27 20C27 20 27 21 27 21C27 21 26 21 26 21C26 21 26 20 26 20ZM27 20C27 20 28 20 28 20C28 20 28 21 28 21C28 21 27 21 27 21C27 21 27 20 27 20ZM28 20C28 20 29 20 29 20C29 20 29 21 29 21C29 21 28 21 28 21C28 21 28 20 28 20ZM29 20C29 20 30 20 30 20C30 20 30 21 30 21C30 21 29 21 29 21C29 21 29 20 29 20ZM30 20C30 20 31 20 31 20C31 20 31 21 31 21C31 21 30 21 30 21C30 21 30 20 30 20ZM31 20C31 20 32 20 32 20C32 20 32 21 32 21C32 21 31 21 31 21C31 21 31 20 31 20ZM17 21C17 21 18 21 18 21C18 21 18 22 18 22C18 22 17 22 17 22C17 22 17 21 17 21ZM18 21C18 21 19 21 19 21C19 21 19 22 19 22C19 22 18 22 18 22C18 22 18 21 18 21ZM19 21C19 21 20 21 20 21C20 21 20 22 20 22C20 22 19 22 19 22C19 22 19 21 19 21ZM20 21C20 21 21 21 21 21C21 21 21 22 21 22C21 22 20 22 20 22C20 22 20 21 20 21ZM21 21C21 21 22 21 22 21C22 21 22 22 22 22C22 22 21 22 21 22C21 22 21 21 21 21ZM22 21C22 21 23 21 23 21C23 21 23 22 23 22C23 22 22 22 22 22C22 22 22 21 22 21ZM23 21C23 21 24 21 24 21C24 21 24 22 24 22C24 22 23 22 23 22C23 22 23 21 23 21ZM24 21C24 21 25 21 25 21C25 21 25 22 25 22C25 22 24 22 24 22C24 22 24 21 24 21ZM26 21C26 21 27 21 27 21C27 21 27 22 27 22C27 22 26 22 26 22C26 22 26 21 26 21ZM27 21C27 21 28 21 28 21C28 21 28 22 28 22C28 22 27 22 27 22C27 22 27 21 27 21ZM28 21C28 21 29 21 29 21C29 21 29 22 29 22C29 22 28 22 28 22C28 22 28 21 28 21ZM29 21C29 21 30 21 30 21C30 21 30 22 30 22C30 22 29 22 29 22C29 22 29 21 29 21ZM30 21C30 21 31 21 31 21C31 21 31 22 31 22C31 22 30 22 30 22C30 22 30 21 30 21ZM31 21C31 21 32 21 32 21C32 21 32 22 32 22C32 22 31 22 31 22C31 22 31 21 31 21ZM17 22C17 22 18 22 18 22C18 22 18 23 18 23C18 23 17 23 17 23C17 23 17 22 17 22ZM19 22C19 22 20 22 20 22C20 22 20 23 20 23C20 23 19 23 19 23C19 23 19 22 19 22ZM20 22C20 22 21 22 21 22C21 22 21 23 21 23C21 23 20 23 20 23C20 23 20 22 20 22ZM21 22C21 22 22 22 22 22C22 22 22 23 22 23C22 23 21 23 21 23C21 23 21 22 21 22ZM22 22C22 22 23 22 23 22C23 22 23 23 23 23C23 23 22 23 22 23C22 23 22 22 22 22ZM23 22C23 22 24 22 24 22C24 22 24 23 24 23C24 23 23 23 23 23C23 23 23 22 23 22ZM25 22C25 22 26 22 26 22C26 22 26 23 26 23C26 23 25 23 25 23C25 23 25 22 25 22ZM28 22C28 22 29 22 29 22C29 22 29 23 29 23C29 23 28 23 28 23C28 23 28 22 28 22ZM29 22C29 22 30 22 30 22C30 22 30 23 30 23C30 23 29 23 29 23C29 23 29 22 29 22ZM30 22C30 22 31 22 31 22C31 22 31 23 31 23C31 23 30 23 30 23C30 23 30 22 30 22ZM35 22C35 22 36 22 36 22C36 22 36 23 36 23C36 23 35 23 35 23C35 23 35 22 35 22ZM20 23C20 23 21 23 21 23C21 23 21 24 21 24C21 24 20 24 20 24C20 24 20 23 20 23ZM21 23C21 23 22 23 22 23C22 23 22 24 22 24C22 24 21 24 21 24C21 24 21 23 21 23ZM22 23C22 23 23 23 23 23C23 23 23 24 23 24C23 24 22 24 22 24C22 24 22 23 22 23ZM23 23C23 23 24 23 24 23C24 23 24 24 24 24C24 24 23 24 23 24C23 24 23 23 23 23ZM24 23C24 23 25 23 25 23C25 23 25 24 25 24C25 24 24 24 24 24C24 24 24 23 24 23ZM27 23C27 23 28 23 28 23C28 23 28 24 28 24C28 24 27 24 27 24C27 24 27 23 27 23ZM29 23C29 23 30 23 30 23C30 23 30 24 30 24C30 24 29 24 29 24C29 24 29 23 29 23ZM30 23C30 23 31 23 31 23C31 23 31 24 31 24C31 24 30 24 30 24C30 24 30 23 30 23ZM20 24C20 24 21 24 21 24C21 24 21 25 21 25C21 25 20 25 20 25C20 25 20 24 20 24ZM21 24C21 24 22 24 22 24C22 24 22 25 22 25C22 25 21 25 21 25C21 25 21 24 21 24ZM22 24C22 24 23 24 23 24C23 24 23 25 23 25C23 25 22 25 22 25C22 25 22 24 22 24ZM23 24C23 24 24 24 24 24C24 24 24 25 24 25C24 25 23 25 23 25C23 25 23 24 23 24ZM24 24C24 24 25 24 25 24C25 24 25 25 25 25C25 25 24 25 24 25C24 25 24 24 24 24ZM29 24C29 24 30 24 30 24C30 24 30 25 30 25C30 25 29 25 29 25C29 25 29 24 29 24ZM30 24C30 24 31 24 31 24C31 24 31 25 31 25C31 25 30 25 30 25C30 25 30 24 30 24ZM20 25C20 25 21 25 21 25C21 25 21 26 21 26C21 26 20 26 20 26C20 26 20 25 20 25ZM21 25C21 25 22 25 22 25C22 25 22 26 22 26C22 26 21 26 21 26C21 26 21 25 21 25ZM22 25C22 25 23 25 23 25C23 25 23 26 23 26C23 26 22 26 22 26C22 26 22 25 22 25ZM23 25C23 25 24 25 24 25C24 25 24 26 24 26C24 26 23 26 23 26C23 26 23 25 23 25ZM24 25C24 25 25 25 25 25C25 25 25 26 25 26C25 26 24 26 24 26C24 26 24 25 24 25ZM29 25C29 25 30 25 30 25C30 25 30 26 30 26C30 26 29 26 29 26C29 26 29 25 29 25ZM16 26C16 26 17 26 17 26C17 26 17 27 17 27C17 27 16 27 16 27C16 27 16 26 16 26ZM20 26C20 26 21 26 21 26C21 26 21 27 21 27C21 27 20 27 20 27C20 27 20 26 20 26ZM21 26C21 26 22 26 22 26C22 26 22 27 22 27C22 27 21 27 21 27C21 27 21 26 21 26ZM22 26C22 26 23 26 23 26C23 26 23 27 23 27C23 27 22 27 22 27C22 27 22 26 22 26ZM23 26C23 26 24 26 24 26C24 26 24 27 24 27C24 27 23 27 23 27C23 27 23 26 23 26ZM24 26C24 26 25 26 25 26C25 26 25 27 25 27C25 27 24 27 24 27C24 27 24 26 24 26ZM29 26C29 26 30 26 30 26C30 26 30 27 30 27C30 27 29 27 29 27C29 27 29 26 29 26ZM16 27C16 27 17 27 17 27C17 27 17 28 17 28C17 28 16 28 16 28C16 28 16 27 16 27ZM17 27C17 27 18 27 18 27C18 27 18 28 18 28C18 28 17 28 17 28C17 28 17 27 17 27ZM18 27C18 27 19 27 19 27C19 27 19 28 19 28C19 28 18 28 18 28C18 28 18 27 18 27ZM19 27C19 27 20 27 20 27C20 27 20 28 20 28C20 28 19 28 19 28C19 28 19 27 19 27ZM20 27C20 27 21 27 21 27C21 27 21 28 21 28C21 28 20 28 20 28C20 28 20 27 20 27ZM23 27C23 27 24 27 24 27C24 27 24 28 24 28C24 28 23 28 23 28C23 28 23 27 23 27ZM24 27C24 27 25 27 25 27C25 27 25 28 25 28C25 28 24 28 24 28C24 28 24 27 24 27ZM25 27C25 27 26 27 26 27C26 27 26 28 26 28C26 28 25 28 25 28C25 28 25 27 25 27ZM28 27C28 27 29 27 29 27C29 27 29 28 29 28C29 28 28 28 28 28C28 28 28 27 28 27ZM29 27C29 27 30 27 30 27C30 27 30 28 30 28C30 28 29 28 29 28C29 28 29 27 29 27ZM40 27C40 27 41 27 41 27C41 27 41 28 41 28C41 28 40 28 40 28C40 28 40 27 40 27ZM16 28C16 28 17 28 17 28C17 28 17 29 17 29C17 29 16 29 16 29C16 29 16 28 16 28ZM17 28C17 28 18 28 18 28C18 28 18 29 18 29C18 29 17 29 17 29C17 29 17 28 17 28ZM18 28C18 28 19 28 19 28C19 28 19 29 19 29C19 29 18 29 18 29C18 29 18 28 18 28ZM19 28C19 28 20 28 20 28C20 28 20 29 20 29C20 29 19 29 19 29C19 29 19 28 19 28ZM20 28C20 28 21 28 21 28C21 28 21 29 21 29C21 29 20 29 20 29C20 29 20 28 20 28ZM21 28C21 28 22 28 22 28C22 28 22 29 22 29C22 29 21 29 21 29C21 29 21 28 21 28ZM22 28C22 28 23 28 23 28C23 28 23 29 23 29C23 29 22 29 22 29C22 29 22 28 22 28ZM23 28C23 28 24 28 24 28C24 28 24 29 24 29C24 29 23 29 23 29C23 29 23 28 23 28ZM25 28C25 28 26 28 26 28C26 28 26 29 26 29C26 29 25 29 25 29C25 29 25 28 25 28ZM26 28C26 28 27 28 27 28C27 28 27 29 27 29C27 29 26 29 26 29C26 29 26 28 26 28ZM27 28C27 28 28 28 28 28C28 28 28 29 28 29C28 29 27 29 27 29C27 29 27 28 27 28ZM28 28C28 28 29 28 29 28C29 28 29 29 29 29C29 29 28 29 28 29C28 29 28 28 28 28ZM38 28C38 28 39 28 39 28C39 28 39 29 39 29C39 29 38 29 38 29C38 29 38 28 38 28ZM39 28C39 28 40 28 40 28C40 28 40 29 40 29C40 29 39 29 39 29C39 29 39 28 39 28ZM40 28C40 28 41 28 41 28C41 28 41 29 41 29C41 29 40 29 40 29C40 29 40 28 40 28ZM41 28C41 28 42 28 42 28C42 28 42 29 42 29C42 29 41 29 41 29C41 29 41 28 41 28ZM17 29C17 29 18 29 18 29C18 29 18 30 18 30C18 30 17 30 17 30C17 30 17 29 17 29ZM18 29C18 29 19 29 19 29C19 29 19 30 19 30C19 30 18 30 18 30C18 30 18 29 18 29ZM19 29C19 29 20 29 20 29C20 29 20 30 20 30C20 30 19 30 19 30C19 30 19 29 19 29ZM24 29C24 29 25 29 25 29C25 29 25 30 25 30C25 30 24 30 24 30C24 30 24 29 24 29ZM25 29C25 29 26 29 26 29C26 29 26 30 26 30C26 30 25 30 25 30C25 30 25 29 25 29ZM26 29C26 29 27 29 27 29C27 29 27 30 27 30C27 30 26 30 26 30C26 30 26 29 26 29ZM37 29C37 29 38 29 38 29C38 29 38 30 38 30C38 30 37 30 37 30C37 30 37 29 37 29ZM38 29C38 29 39 29 39 29C39 29 39 30 39 30C39 30 38 30 38 30C38 30 38 29 38 29ZM39 29C39 29 40 29 40 29C40 29 40 30 40 30C40 30 39 30 39 30C39 30 39 29 39 29ZM40 29C40 29 41 29 41 29C41 29 41 30 41 30C41 30 40 30 40 30C40 30 40 29 40 29ZM41 29C41 29 42 29 42 29C42 29 42 30 42 30C42 30 41 30 41 30C41 30 41 29 41 29ZM19 30C19 30 20 30 20 30C20 30 20 31 20 31C20 31 19 31 19 31C19 31 19 30 19 30ZM20 30C20 30 21 30 21 30C21 30 21 31 21 31C21 31 20 31 20 31C20 31 20 30 20 30ZM21 30C21 30 22 30 22 30C22 30 22 31 22 31C22 31 21 31 21 31C21 31 21 30 21 30ZM22 30C22 30 23 30 23 30C23 30 23 31 23 31C23 31 22 31 22 31C22 31 22 30 22 30ZM23 30C23 30 24 30 24 30C24 30 24 31 24 31C24 31 23 31 23 31C23 31 23 30 23 30ZM24 30C24 30 25 30 25 30C25 30 25 31 25 31C25 31 24 31 24 31C24 31 24 30 24 30ZM30 30C30 30 31 30 31 30C31 30 31 31 31 31C31 31 30 31 30 31C30 31 30 30 30 30ZM31 30C31 30 32 30 32 30C32 30 32 31 32 31C32 31 31 31 31 31C31 31 31 30 31 30ZM36 30C36 30 37 30 37 30C37 30 37 31 37 31C37 31 36 31 36 31C36 31 36 30 36 30ZM37 30C37 30 38 30 38 30C38 30 38 31 38 31C38 31 37 31 37 31C37 31 37 30 37 30ZM38 30C38 30 39 30 39 30C39 30 39 31 39 31C39 31 38 31 38 31C38 31 38 30 38 30ZM39 30C39 30 40 30 40 30C40 30 40 31 40 31C40 31 39 31 39 31C39 31 39 30 39 30ZM40 30C40 30 41 30 41 30C41 30 41 31 41 31C41 31 40 31 40 31C40 31 40 30 40 30ZM41 30C41 30 42 30 42 30C42 30 42 31 42 31C42 31 41 31 41 31C41 31 41 30 41 30ZM42 30C42 30 43 30 43 30C43 30 43 31 43 31C43 31 42 31 42 31C42 31 42 30 42 30ZM45 30C45 30 46 30 46 30C46 30 46 31 46 31C46 31 45 31 45 31C45 31 45 30 45 30ZM46 30C46 30 47 30 47 30C47 30 47 31 47 31C47 31 46 31 46 31C46 31 46 30 46 30ZM31 31C31 31 32 31 32 31C32 31 32 32 32 32C32 32 31 32 31 32C31 32 31 31 31 31ZM32 31C32 31 33 31 33 31C33 31 33 32 33 32C33 32 32 32 32 32C32 32 32 31 32 31ZM36 31C36 31 37 31 37 31C37 31 37 32 37 32C37 32 36 32 36 32C36 32 36 31 36 31ZM37 31C37 31 38 31 38 31C38 31 38 32 38 32C38 32 37 32 37 32C37 32 37 31 37 31ZM38 31C38 31 39 31 39 31C39 31 39 32 39 32C39 32 38 32 38 32C38 32 38 31 38 31ZM39 31C39 31 40 31 40 31C40 31 40 32 40 32C40 32 39 32 39 32C39 32 39 31 39 31ZM40 31C40 31 41 31 41 31C41 31 41 32 41 32C41 32 40 32 40 32C40 32 40 31 40 31ZM41 31C41 31 42 31 42 31C42 31 42 32 42 32C42 32 41 32 41 32C41 32 41 31 41 31ZM42 31C42 31 43 31 43 31C43 31 43 32 43 32C43 32 42 32 42 32C42 32 42 31 42 31ZM43 31C43 31 44 31 44 31C44 31 44 32 44 32C44 32 43 32 43 32C43 32 43 31 43 31ZM44 31C44 31 45 31 45 31C45 31 45 32 45 32C45 32 44 32 44 32C44 32 44 31 44 31ZM45 31C45 31 46 31 46 31C46 31 46 32 46 32C46 32 45 32 45 32C45 32 45 31 45 31ZM46 31C46 31 47 31 47 31C47 31 47 32 47 32C47 32 46 32 46 32C46 32 46 31 46 31ZM18 32C18 32 19 32 19 32C19 32 19 33 19 33C19 33 18 33 18 33C18 33 18 32 18 32ZM31 32C31 32 32 32 32 32C32 32 32 33 32 33C32 33 31 33 31 33C31 33 31 32 31 32ZM32 32C32 32 33 32 33 32C33 32 33 33 33 33C33 33 32 33 32 33C32 33 32 32 32 32ZM33 32C33 32 34 32 34 32C34 32 34 33 34 33C34 33 33 33 33 33C33 33 33 32 33 32ZM35 32C35 32 36 32 36 32C36 32 36 33 36 33C36 33 35 33 35 33C35 33 35 32 35 32ZM36 32C36 32 37 32 37 32C37 32 37 33 37 33C37 33 36 33 36 33C36 33 36 32 36 32ZM37 32C37 32 38 32 38 32C38 32 38 33 38 33C38 33 37 33 37 33C37 33 37 32 37 32ZM38 32C38 32 39 32 39 32C39 32 39 33 39 33C39 33 38 33 38 33C38 33 38 32 38 32ZM39 32C39 32 40 32 40 32C40 32 40 33 40 33C40 33 39 33 39 33C39 33 39 32 39 32ZM40 32C40 32 41 32 41 32C41 32 41 33 41 33C41 33 40 33 40 33C40 33 40 32 40 32ZM41 32C41 32 42 32 42 32C42 32 42 33 42 33C42 33 41 33 41 33C41 33 41 32 41 32ZM42 32C42 32 43 32 43 32C43 32 43 33 43 33C43 33 42 33 42 33C42 33 42 32 42 32ZM43 32C43 32 44 32 44 32C44 32 44 33 44 33C44 33 43 33 43 33C43 33 43 32 43 32ZM44 32C44 32 45 32 45 32C45 32 45 33 45 33C45 33 44 33 44 33C44 33 44 32 44 32ZM45 32C45 32 46 32 46 32C46 32 46 33 46 33C46 33 45 33 45 33C45 33 45 32 45 32ZM46 32C46 32 47 32 47 32C47 32 47 33 47 33C47 33 46 33 46 33C46 33 46 32 46 32ZM17 33C17 33 18 33 18 33C18 33 18 34 18 34C18 34 17 34 17 34C17 34 17 33 17 33ZM21 33C21 33 22 33 22 33C22 33 22 34 22 34C22 34 21 34 21 34C21 34 21 33 21 33ZM22 33C22 33 23 33 23 33C23 33 23 34 23 34C23 34 22 34 22 34C22 34 22 33 22 33ZM23 33C23 33 24 33 24 33C24 33 24 34 24 34C24 34 23 34 23 34C23 34 23 33 23 33ZM24 33C24 33 25 33 25 33C25 33 25 34 25 34C25 34 24 34 24 34C24 34 24 33 24 33ZM25 33C25 33 26 33 26 33C26 33 26 34 26 34C26 34 25 34 25 34C25 34 25 33 25 33ZM26 33C26 33 27 33 27 33C27 33 27 34 27 34C27 34 26 34 26 34C26 34 26 33 26 33ZM32 33C32 33 33 33 33 33C33 33 33 34 33 34C33 34 32 34 32 34C32 34 32 33 32 33ZM33 33C33 33 34 33 34 33C34 33 34 34 34 34C34 34 33 34 33 34C33 34 33 33 33 33ZM35 33C35 33 36 33 36 33C36 33 36 34 36 34C36 34 35 34 35 34C35 34 35 33 35 33ZM36 33C36 33 37 33 37 33C37 33 37 34 37 34C37 34 36 34 36 34C36 34 36 33 36 33ZM37 33C37 33 38 33 38 33C38 33 38 34 38 34C38 34 37 34 37 34C37 34 37 33 37 33ZM38 33C38 33 39 33 39 33C39 33 39 34 39 34C39 34 38 34 38 34C38 34 38 33 38 33ZM39 33C39 33 40 33 40 33C40 33 40 34 40 34C40 34 39 34 39 34C39 34 39 33 39 33ZM40 33C40 33 41 33 41 33C41 33 41 34 41 34C41 34 40 34 40 34C40 34 40 33 40 33ZM41 33C41 33 42 33 42 33C42 33 42 34 42 34C42 34 41 34 41 34C41 34 41 33 41 33ZM42 33C42 33 43 33 43 33C43 33 43 34 43 34C43 34 42 34 42 34C42 34 42 33 42 33ZM43 33C43 33 44 33 44 33C44 33 44 34 44 34C44 34 43 34 43 34C43 34 43 33 43 33ZM44 33C44 33 45 33 45 33C45 33 45 34 45 34C45 34 44 34 44 34C44 34 44 33 44 33ZM45 33C45 33 46 33 46 33C46 33 46 34 46 34C46 34 45 34 45 34C45 34 45 33 45 33ZM16 34C16 34 17 34 17 34C17 34 17 35 17 35C17 35 16 35 16 35C16 35 16 34 16 34ZM22 34C22 34 23 34 23 34C23 34 23 35 23 35C23 35 22 35 22 35C22 35 22 34 22 34ZM23 34C23 34 24 34 24 34C24 34 24 35 24 35C24 35 23 35 23 35C23 35 23 34 23 34ZM24 34C24 34 25 34 25 34C25 34 25 35 25 35C25 35 24 35 24 35C24 35 24 34 24 34ZM25 34C25 34 26 34 26 34C26 34 26 35 26 35C26 35 25 35 25 35C25 35 25 34 25 34ZM26 34C26 34 27 34 27 34C27 34 27 35 27 35C27 35 26 35 26 35C26 35 26 34 26 34ZM27 34C27 34 28 34 28 34C28 34 28 35 28 35C28 35 27 35 27 35C27 35 27 34 27 34ZM32 34C32 34 33 34 33 34C33 34 33 35 33 35C33 35 32 35 32 35C32 35 32 34 32 34ZM33 34C33 34 34 34 34 34C34 34 34 35 34 35C34 35 33 35 33 35C33 35 33 34 33 34ZM36 34C36 34 37 34 37 34C37 34 37 35 37 35C37 35 36 35 36 35C36 35 36 34 36 34ZM37 34C37 34 38 34 38 34C38 34 38 35 38 35C38 35 37 35 37 35C37 35 37 34 37 34ZM38 34C38 34 39 34 39 34C39 34 39 35 39 35C39 35 38 35 38 35C38 35 38 34 38 34ZM39 34C39 34 40 34 40 34C40 34 40 35 40 35C40 35 39 35 39 35C39 35 39 34 39 34ZM40 34C40 34 41 34 41 34C41 34 41 35 41 35C41 35 40 35 40 35C40 35 40 34 40 34ZM41 34C41 34 42 34 42 34C42 34 42 35 42 35C42 35 41 35 41 35C41 35 41 34 41 34ZM42 34C42 34 43 34 43 34C43 34 43 35 43 35C43 35 42 35 42 35C42 35 42 34 42 34ZM43 34C43 34 44 34 44 34C44 34 44 35 44 35C44 35 43 35 43 35C43 35 43 34 43 34ZM44 34C44 34 45 34 45 34C45 34 45 35 45 35C45 35 44 35 44 35C44 35 44 34 44 34ZM45 34C45 34 46 34 46 34C46 34 46 35 46 35C46 35 45 35 45 35C45 35 45 34 45 34ZM14 35C14 35 15 35 15 35C15 35 15 36 15 36C15 36 14 36 14 36C14 36 14 35 14 35ZM15 35C15 35 16 35 16 35C16 35 16 36 16 36C16 36 15 36 15 36C15 36 15 35 15 35ZM16 35C16 35 17 35 17 35C17 35 17 36 17 36C17 36 16 36 16 36C16 36 16 35 16 35ZM25 35C25 35 26 35 26 35C26 35 26 36 26 36C26 36 25 36 25 36C25 36 25 35 25 35ZM26 35C26 35 27 35 27 35C27 35 27 36 27 36C27 36 26 36 26 36C26 36 26 35 26 35ZM27 35C27 35 28 35 28 35C28 35 28 36 28 36C28 36 27 36 27 36C27 36 27 35 27 35ZM32 35C32 35 33 35 33 35C33 35 33 36 33 36C33 36 32 36 32 36C32 36 32 35 32 35ZM33 35C33 35 34 35 34 35C34 35 34 36 34 36C34 36 33 36 33 36C33 36 33 35 33 35ZM36 35C36 35 37 35 37 35C37 35 37 36 37 36C37 36 36 36 36 36C36 36 36 35 36 35ZM37 35C37 35 38 35 38 35C38 35 38 36 38 36C38 36 37 36 37 36C37 36 37 35 37 35ZM38 35C38 35 39 35 39 35C39 35 39 36 39 36C39 36 38 36 38 36C38 36 38 35 38 35ZM39 35C39 35 40 35 40 35C40 35 40 36 40 36C40 36 39 36 39 36C39 36 39 35 39 35ZM40 35C40 35 41 35 41 35C41 35 41 36 41 36C41 36 40 36 40 36C40 36 40 35 40 35ZM41 35C41 35 42 35 42 35C42 35 42 36 42 36C42 36 41 36 41 36C41 36 41 35 41 35ZM42 35C42 35 43 35 43 35C43 35 43 36 43 36C43 36 42 36 42 36C42 36 42 35 42 35ZM43 35C43 35 44 35 44 35C44 35 44 36 44 36C44 36 43 36 43 36C43 36 43 35 43 35ZM44 35C44 35 45 35 45 35C45 35 45 36 45 36C45 36 44 36 44 36C44 36 44 35 44 35ZM15 36C15 36 16 36 16 36C16 36 16 37 16 37C16 37 15 37 15 37C15 37 15 36 15 36ZM19 36C19 36 20 36 20 36C20 36 20 37 20 37C20 37 19 37 19 37C19 37 19 36 19 36ZM26 36C26 36 27 36 27 36C27 36 27 37 27 37C27 37 26 37 26 37C26 37 26 36 26 36ZM27 36C27 36 28 36 28 36C28 36 28 37 28 37C28 37 27 37 27 37C27 37 27 36 27 36ZM31 36C31 36 32 36 32 36C32 36 32 37 32 37C32 37 31 37 31 37C31 37 31 36 31 36ZM32 36C32 36 33 36 33 36C33 36 33 37 33 37C33 37 32 37 32 37C32 37 32 36 32 36ZM37 36C37 36 38 36 38 36C38 36 38 37 38 37C38 37 37 37 37 37C37 37 37 36 37 36ZM38 36C38 36 39 36 39 36C39 36 39 37 39 37C39 37 38 37 38 37C38 37 38 36 38 36ZM39 36C39 36 40 36 40 36C40 36 40 37 40 37C40 37 39 37 39 37C39 37 39 36 39 36ZM40 36C40 36 41 36 41 36C41 36 41 37 41 37C41 37 40 37 40 37C40 37 40 36 40 36ZM41 36C41 36 42 36 42 36C42 36 42 37 42 37C42 37 41 37 41 37C41 37 41 36 41 36ZM42 36C42 36 43 36 43 36C43 36 43 37 43 37C43 37 42 37 42 37C42 37 42 36 42 36ZM43 36C43 36 44 36 44 36C44 36 44 37 44 37C44 37 43 37 43 37C43 37 43 36 43 36ZM44 36C44 36 45 36 45 36C45 36 45 37 45 37C45 37 44 37 44 37C44 37 44 36 44 36ZM18 37C18 37 19 37 19 37C19 37 19 38 19 38C19 38 18 38 18 38C18 38 18 37 18 37ZM26 37C26 37 27 37 27 37C27 37 27 38 27 38C27 38 26 38 26 38C26 38 26 37 26 37ZM27 37C27 37 28 37 28 37C28 37 28 38 28 38C28 38 27 38 27 38C27 38 27 37 27 37ZM31 37C31 37 32 37 32 37C32 37 32 38 32 38C32 38 31 38 31 38C31 38 31 37 31 37ZM37 37C37 37 38 37 38 37C38 37 38 38 38 38C38 38 37 38 37 38C37 38 37 37 37 37ZM38 37C38 37 39 37 39 37C39 37 39 38 39 38C39 38 38 38 38 38C38 38 38 37 38 37ZM39 37C39 37 40 37 40 37C40 37 40 38 40 38C40 38 39 38 39 38C39 38 39 37 39 37ZM40 37C40 37 41 37 41 37C41 37 41 38 41 38C41 38 40 38 40 38C40 38 40 37 40 37ZM41 37C41 37 42 37 42 37C42 37 42 38 42 38C42 38 41 38 41 38C41 38 41 37 41 37ZM42 37C42 37 43 37 43 37C43 37 43 38 43 38C43 38 42 38 42 38C42 38 42 37 42 37ZM14 38C14 38 15 38 15 38C15 38 15 39 15 39C15 39 14 39 14 39C14 39 14 38 14 38ZM15 38C15 38 16 38 16 38C16 38 16 39 16 39C16 39 15 39 15 39C15 39 15 38 15 38ZM25 38C25 38 26 38 26 38C26 38 26 39 26 39C26 39 25 39 25 39C25 39 25 38 25 38ZM26 38C26 38 27 38 27 38C27 38 27 39 27 39C27 39 26 39 26 39C26 39 26 38 26 38ZM30 38C30 38 31 38 31 38C31 38 31 39 31 39C31 39 30 39 30 39C30 39 30 38 30 38ZM31 38C31 38 32 38 32 38C32 38 32 39 32 39C32 39 31 39 31 39C31 39 31 38 31 38ZM37 38C37 38 38 38 38 38C38 38 38 39 38 39C38 39 37 39 37 39C37 39 37 38 37 38ZM38 38C38 38 39 38 39 38C39 38 39 39 39 39C39 39 38 39 38 39C38 39 38 38 38 38ZM39 38C39 38 40 38 40 38C40 38 40 39 40 39C40 39 39 39 39 39C39 39 39 38 39 38ZM14 39C14 39 15 39 15 39C15 39 15 40 15 40C15 40 14 40 14 40C14 40 14 39 14 39ZM15 39C15 39 16 39 16 39C16 39 16 40 16 40C16 40 15 40 15 40C15 40 15 39 15 39ZM16 39C16 39 17 39 17 39C17 39 17 40 17 40C17 40 16 40 16 40C16 40 16 39 16 39ZM22 39C22 39 23 39 23 39C23 39 23 40 23 40C23 40 22 40 22 40C22 40 22 39 22 39ZM23 39C23 39 24 39 24 39C24 39 24 40 24 40C24 40 23 40 23 40C23 40 23 39 23 39ZM24 39C24 39 25 39 25 39C25 39 25 40 25 40C25 40 24 40 24 40C24 40 24 39 24 39ZM25 39C25 39 26 39 26 39C26 39 26 40 26 40C26 40 25 40 25 40C25 40 25 39 25 39ZM14 40C14 40 15 40 15 40C15 40 15 41 15 41C15 41 14 41 14 41C14 41 14 40 14 40ZM15 40C15 40 16 40 16 40C16 40 16 41 16 41C16 41 15 41 15 41C15 41 15 40 15 40ZM16 40C16 40 17 40 17 40C17 40 17 41 17 41C17 41 16 41 16 41C16 41 16 40 16 40ZM17 40C17 40 18 40 18 40C18 40 18 41 18 41C18 41 17 41 17 41C17 41 17 40 17 40ZM20 40C20 40 21 40 21 40C21 40 21 41 21 41C21 41 20 41 20 41C20 41 20 40 20 40ZM21 40C21 40 22 40 22 40C22 40 22 41 22 41C22 41 21 41 21 41C21 41 21 40 21 40ZM22 40C22 40 23 40 23 40C23 40 23 41 23 41C23 41 22 41 22 41C22 41 22 40 22 40ZM23 40C23 40 24 40 24 40C24 40 24 41 24 41C24 41 23 41 23 41C23 41 23 40 23 40ZM24 40C24 40 25 40 25 40C25 40 25 41 25 41C25 41 24 41 24 41C24 41 24 40 24 40ZM14 41C14 41 15 41 15 41C15 41 15 42 15 42C15 42 14 42 14 42C14 42 14 41 14 41ZM16 41C16 41 17 41 17 41C17 41 17 42 17 42C17 42 16 42 16 42C16 42 16 41 16 41ZM17 41C17 41 18 41 18 41C18 41 18 42 18 42C18 42 17 42 17 42C17 42 17 41 17 41ZM16 42C16 42 17 42 17 42C17 42 17 43 17 43C17 43 16 43 16 43C16 43 16 42 16 42ZM25 42C25 42 26 42 26 42C26 42 26 43 26 43C26 43 25 43 25 43C25 43 25 42 25 42Z" id="Combined-Shape-Copy" fill="#948A4D" stroke="none" clip-path="url(#clip_1)" />
  </g>
</svg>